<svg xmlns="http://www.w3.org/2000/svg" width="24" height="26" viewBox="0 0 24 26">
    <g fill="#007D96">
        <path stroke="#FFF" d="M12.188 4.286V10h5c1.468.002 2.798.62 3.76 1.62.957.993 1.55 2.364 1.552 3.88h0v5.78c0 1.338-.647 2.586-1.718 3.328-.894.619-1.944.802-2.92.599-.972-.202-1.871-.788-2.465-1.713h0L13.797 21H8.203l-1.601 2.494c-.72 1.122-1.933 1.791-3.229 1.791-1.072 0-2.043-.45-2.746-1.18C-.068 23.382-.5 22.384-.5 21.28h0V15.5c.002-1.516.595-2.887 1.551-3.88.963-1 2.293-1.618 3.761-1.62h5V4.286h2.376zm4.999 8.142H4.812c-.808.001-1.539.344-2.069.894-.536.558-.867 1.328-.868 2.178v5.78c0 .526.252 1.02.675 1.314.341.236.742.307 1.115.23.376-.079.723-.308.952-.666l2.305-3.587h8.157l2.304 3.59c.277.433.742.696 1.243.696.412 0 .784-.175 1.053-.455.277-.287.446-.684.446-1.122V15.5c-.001-.85-.332-1.62-.868-2.178-.53-.55-1.261-.893-2.07-.894z" transform="translate(1)"/>
        <path d="M5.667 12.786L4.333 12.786 4.333 14.119 3 14.119 3 15.452 4.333 15.452 4.333 16.786 5.667 16.786 5.667 15.452 7 15.452 7 14.119 5.667 14.119zM16 15.786H18V17.786H16zM13 13.786H15V15.786H13zM10 .786H12V2.786H10z" transform="translate(1)"/>
    </g>
</svg>
