<svg width="125" height="127" viewBox="0 0 125 127" fill="none" xmlns="http://www.w3.org/2000/svg">
<path fill-rule="evenodd" clip-rule="evenodd" d="M120.051 62.7816C118.127 62.2333 114.587 63.9962 111.487 67.1977C108.56 70.2205 106.927 73.5942 107.267 75.5655L107 75.8331L107.636 76.4696C107.691 76.5436 107.752 76.6129 107.819 76.6773C109.39 78.1985 113.579 76.4205 117.175 72.7062C120.754 69.0102 122.398 64.7897 120.866 63.2493L120.868 63.2478L120.226 62.6064L120.051 62.7816Z" fill="#FF8E07"/>
<ellipse cx="113.51" cy="69.1214" rx="4.04402" ry="9.35655" transform="rotate(-135.923 113.51 69.1214)" fill="#FFCF06"/>
<path d="M108.202 73.5635C108.355 72.4042 109.22 69.5078 111.448 67.1959C113.676 64.8841 116.327 63.8469 117.374 63.6173" stroke="#FF8E07" stroke-width="0.810097"/>
<path fill-rule="evenodd" clip-rule="evenodd" d="M109.482 38.9602C108.606 39.8095 108.457 42.2171 109.203 44.8309C109.907 47.2988 111.191 49.1899 112.336 49.6114L112.396 49.8342L112.925 49.6924C112.981 49.6859 113.037 49.6749 113.092 49.6593C114.374 49.2934 114.713 46.5384 113.848 43.5059C112.987 40.4883 111.259 38.333 109.978 38.6723L109.977 38.6709L109.443 38.8141L109.482 38.9602Z" fill="#FF8E07"/>
<ellipse cx="110.836" cy="44.348" rx="2.46657" ry="5.70685" transform="rotate(164.077 110.836 44.348)" fill="#FFCF06"/>
<path d="M111.563 48.5068C110.998 48.0721 109.731 46.7321 109.19 44.8501C108.648 42.9682 108.909 41.2516 109.107 40.6285" stroke="#FF8E07" stroke-width="0.494103"/>
<path fill-rule="evenodd" clip-rule="evenodd" d="M91.5135 105.389C87.8033 98.7207 73.5031 93.9279 56.5105 94.2016C40.4666 94.46 26.9671 99.1552 22.5692 105.389H21.1253V108.83C21.0754 109.175 21.0528 109.523 21.0585 109.873C21.1927 118.211 37.2829 124.712 56.9968 124.395C76.6126 124.079 92.4251 117.131 92.4496 108.848H92.4564V105.389H91.5135Z" fill="#FF8E07"/>
<ellipse cx="56.7747" cy="104.847" rx="15.4215" ry="35.6805" transform="rotate(-90.9227 56.7747 104.847)" fill="#FFCF06"/>
<path d="M30.4844 102.512C34.025 99.8006 44.1666 94.3218 56.4085 94.0957C68.6503 93.8696 78.5956 98.2215 82.038 100.426" stroke="#FF8E07" stroke-width="2.80147"/>
<path fill-rule="evenodd" clip-rule="evenodd" d="M94.0262 98.5146C90.316 91.8467 76.0158 87.0539 59.0232 87.3276C42.9793 87.5859 29.4798 92.2812 25.0819 98.5146H23.638V101.956C23.5881 102.301 23.5655 102.649 23.5712 102.999C23.7054 111.337 39.7956 117.838 59.5095 117.521C79.1253 117.205 94.9378 110.257 94.9623 101.974H94.9691V98.5146H94.0262Z" fill="#FF8E07"/>
<ellipse cx="59.2874" cy="97.9727" rx="15.4215" ry="35.6805" transform="rotate(-90.9227 59.2874 97.9727)" fill="#FFCF06"/>
<path d="M32.9971 95.6377C36.5377 92.9266 46.6793 87.4478 58.9212 87.2217C71.163 86.9956 81.1083 91.3475 84.5507 93.5517" stroke="#FF8E07" stroke-width="2.80147"/>
<path fill-rule="evenodd" clip-rule="evenodd" d="M94.0262 90.5752C90.316 83.9072 76.0158 79.1144 59.0232 79.3881C42.9793 79.6465 29.4798 84.3417 25.0819 90.5752H23.638V94.0166C23.5881 94.3617 23.5655 94.7095 23.5712 95.0596C23.7054 103.397 39.7956 109.899 59.5095 109.581C79.1253 109.265 94.9378 102.317 94.9623 94.0342H94.9691V90.5752H94.0262Z" fill="#FF8E07"/>
<ellipse cx="59.2874" cy="90.0332" rx="15.4215" ry="35.6805" transform="rotate(-90.9227 59.2874 90.0332)" fill="#FFCF06"/>
<path d="M32.9971 87.6982C36.5377 84.9871 46.6793 79.5083 58.9212 79.2822C71.163 79.0561 81.1083 83.408 84.5507 85.6122" stroke="#FF8E07" stroke-width="2.80147"/>
<path d="M19.798 27.6299H15.6304V40.6024H19.798V27.6299Z" fill="#36DEF4"/>
<path d="M27.3699 22.2295H23.1436V40.6024H27.3699V22.2295Z" fill="#36DEF4"/>
<path d="M34.7663 18.0615H30.5986V40.602H34.7663V18.0615Z" fill="#36DEF4"/>
<path d="M42.2796 12.4854H38.0532V40.6023H42.2796V12.4854Z" fill="#36DEF4"/>
<path d="M42.1037 1.50885C40.7536 2.09584 39.4622 2.74152 38.2295 3.44591C37.5839 3.79811 36.9969 4.20901 36.3512 4.56121C35.7642 4.9721 35.1185 5.38299 34.5315 5.85259C35.2946 5.73519 35.999 5.55909 36.7034 5.38299C37.4078 5.20689 38.1121 4.9721 38.8165 4.73731C39.4622 4.50251 40.1079 4.2677 40.6949 4.03291C38.9339 5.91128 37.1143 7.67226 35.1772 9.31584C34.0032 10.255 32.9466 11.2529 31.7139 12.0747C30.54 13.0139 29.366 13.8357 28.1333 14.7162C26.9006 15.538 25.6679 16.4185 24.4352 17.1815C23.8482 17.5924 23.2025 18.0033 22.5569 18.3555C21.9112 18.7664 21.3242 19.1773 20.6785 19.5295C18.1544 21.0557 15.5716 22.5819 12.9302 24.0494C15.8064 23.1689 18.5653 21.9949 21.2655 20.6448C21.9699 20.2926 22.6155 19.9404 23.2612 19.5882C23.9069 19.236 24.5526 18.8838 25.257 18.4729C26.5484 17.7098 27.8398 16.8881 29.0725 16.0076C30.3052 15.1271 31.5378 14.2466 32.6531 13.2487C33.2401 12.7791 33.8271 12.3095 34.3554 11.7812C34.9424 11.2529 35.4707 10.7833 35.999 10.1963C37.76 8.43535 39.3448 6.49828 40.6949 4.38511C40.5775 4.8547 40.4014 5.383 40.284 5.91129C40.1079 6.61568 39.9318 7.26137 39.8144 7.96576C39.697 8.67016 39.5796 9.37454 39.5209 10.0789C39.9318 9.49194 40.3427 8.84625 40.6949 8.25926C41.0471 7.61357 41.3406 7.02657 41.6928 6.38088C42.2798 5.08949 42.8668 3.79812 43.3364 2.50673L44.0995 0.393555L42.1037 1.50885Z" fill="#F12272"/>
<path d="M104.607 65.0459C104.322 64.7842 104.013 64.5462 103.727 64.2845" stroke="#A793F7" stroke-width="0.816" stroke-miterlimit="10"/>
<path d="M101.823 62.8086C96.9927 59.2155 91.4484 56.5743 85.5948 55.099C84.5716 54.8372 83.5009 54.6231 82.4539 54.8134C81.4069 55.0276 80.4075 55.7414 80.1933 56.7884C79.9078 58.2161 81.1451 59.4773 82.4063 60.1673C83.4295 60.7384 84.6906 61.1429 85.7614 60.667C86.6894 60.2387 87.2367 59.2155 87.4033 58.1923C87.7126 56.2887 86.9988 54.3851 85.9756 52.7432C84.9524 51.1252 83.6674 49.6737 82.6442 48.0556C80.2171 44.177 79.5747 39.2514 80.8834 34.8731C81.859 31.6131 84.0719 28.5912 87.0225 26.9731" stroke="#4C1A74" stroke-width="0.816" stroke-miterlimit="10" stroke-dasharray="10.09 10.09"/>
<path d="M88.1172 26.498C88.4741 26.3553 88.831 26.2363 89.2118 26.1173" stroke="#A793F7" stroke-width="0.816" stroke-miterlimit="10"/>
<path d="M97.5816 14.1074C97.5816 14.1074 91.9506 11.9958 84.6411 14.9196C84.6411 14.9196 90.8677 20.5506 93.3042 21.7959C93.3042 21.7959 100.18 15.1362 97.5816 14.1074Z" fill="#6A3680"/>
<path d="M98.0147 15.6778C96.9318 15.9485 95.7948 16.2193 94.7119 16.3276C91.734 16.5983 88.9185 15.8403 86.3737 14.3242C85.8323 14.4867 85.2367 14.7032 84.6411 14.9198C84.6411 14.9198 90.8677 20.5508 93.3042 21.7961C93.3042 21.7961 97.2567 18.006 98.0147 15.6778Z" fill="#4C1A74"/>
<path d="M103.429 24.72C103.429 24.72 101.642 30.4593 94.9285 34.5201C94.9285 34.5201 94.2246 26.1819 94.7119 23.4747C94.766 23.5288 104.187 22.0669 103.429 24.72Z" fill="#6A3680"/>
<path d="M100.235 23.0955C97.744 23.0414 94.7661 23.4745 94.7661 23.4745C94.2788 26.1276 94.9827 34.5199 94.9827 34.5199C95.1992 34.4116 95.4158 34.2492 95.5782 34.1409C97.3109 30.5674 97.9064 26.3983 100.235 23.0955Z" fill="#4C1A74"/>
<path d="M108.898 21.7423C101.263 26.0738 93.6831 27.1567 91.9505 24.1788C90.2179 21.2008 95.0909 15.245 102.779 10.9134C110.468 6.58191 119.726 8.5311 119.726 8.5311C119.726 8.5311 116.586 17.4649 108.898 21.7423Z" fill="#FFE925"/>
<path d="M119.24 9.72266C116.154 13.5127 112.147 16.4907 107.815 18.6023C105.379 19.7935 102.726 20.5515 100.019 20.9305C97.8528 21.2554 95.1998 21.3636 93.3047 20.1183C93.0881 20.01 92.9257 19.8476 92.8174 19.6852C91.7345 21.4178 91.4638 22.988 92.1135 24.1791C93.792 27.1571 101.372 26.0742 109.061 21.7427C114.854 18.4399 118.103 12.3216 119.24 9.72266Z" fill="#FFC225"/>
<path d="M116.64 14.4336C118.752 11.2391 119.727 8.53189 119.727 8.53189C119.727 8.53189 116.857 7.93631 113.067 8.15288C114.691 9.93964 115.937 12.1054 116.64 14.4336Z" fill="#6A3680"/>
<path d="M108.898 18.4388C110.931 18.4388 112.579 16.7904 112.579 14.757C112.579 12.7236 110.931 11.0752 108.898 11.0752C106.864 11.0752 105.216 12.7236 105.216 14.757C105.216 16.7904 106.864 18.4388 108.898 18.4388Z" fill="#F12272"/>
<path d="M108.898 17.5724C110.453 17.5724 111.714 16.3119 111.714 14.7569C111.714 13.2019 110.453 11.9414 108.898 11.9414C107.343 11.9414 106.083 13.2019 106.083 14.7569C106.083 16.3119 107.343 17.5724 108.898 17.5724Z" fill="black"/>
<path d="M96.336 20.6055L97.2023 22.2298L88.2144 26.3989L96.336 20.6055Z" fill="#3F2F7C"/>
<path d="M78.2715 29.4108C75.7809 28.4903 74.2648 23.3467 71.9366 12.5178C69.6626 1.79729 59.1586 3.25918 58.7796 3.31332C58.4548 3.25918 47.9508 1.85143 45.6226 12.5178C43.2944 23.4008 41.7784 28.5445 39.2877 29.4108C36.7971 30.3312 33.9816 37.0993 41.7784 41.8098C45.3519 43.9756 52.0116 45.2209 58.4548 45.275C58.563 45.275 58.6172 45.275 58.7255 45.275C58.8338 45.275 58.8879 45.275 58.9962 45.275C65.4935 45.275 72.0991 43.9756 75.6726 41.8098C83.6318 37.1534 80.8163 30.3312 78.2715 29.4108Z" fill="#6A3680"/>
<path d="M68.8502 29.3571C64.3562 22.6432 65.2225 14.7382 65.0059 7.04971C62.028 5.64196 58.0755 5.96682 54.881 6.1834C55.4224 9.64862 55.4766 13.168 55.2059 16.6332C54.8269 21.2896 53.7981 26.4874 50.6578 30.1151C48.8169 32.2809 46.2721 33.1472 43.8356 34.3384C41.9947 35.2588 40.6411 36.829 39.6665 38.6699C39.5041 38.9947 39.3416 39.3196 39.1792 39.6986C39.8831 40.4025 40.7494 41.1064 41.8323 41.7561C45.4058 43.9219 52.0655 45.1672 58.5087 45.2213C58.6169 45.2213 58.6711 45.2213 58.7794 45.2213C58.8877 45.2213 58.9418 45.2213 59.0501 45.2213C65.4932 45.2213 72.0447 43.9219 75.6723 41.8102C75.8348 40.5649 75.6182 39.2655 74.9685 37.8036C73.5066 34.6632 70.7994 32.2809 68.8502 29.3571Z" fill="#4C1A74"/>
<path d="M53.9608 29.6271C53.9608 29.6271 54.0149 35.7995 52.8237 36.7199C52.8237 36.7199 55.0436 39.752 59.8083 39.5354C59.8083 39.5354 63.4901 39.2106 64.5189 37.857C64.5189 37.857 64.1398 30.4392 64.194 28.8149C64.194 28.8149 55.3144 26.5408 53.9608 29.6271Z" fill="#F12272"/>
<path d="M53.7437 33.2006C55.8011 34.7166 58.0752 35.5288 60.7824 34.8249C62.0818 34.5 63.2189 33.8503 64.3018 33.0923C64.2476 31.3055 64.1935 29.5188 64.1935 28.8149C64.1935 28.8149 55.3138 26.5408 53.9602 29.6271C53.9602 29.6271 53.9602 31.4138 53.7437 33.2006Z" fill="#BE034D"/>
<path d="M75.4015 40.7806C75.1849 39.9685 66.4136 37.0447 64.5727 36.4491C62.6235 37.8569 60.2953 38.5066 57.7505 38.2359C55.8555 38.0734 53.9063 37.3154 52.7151 35.8535H52.6068C52.6068 35.8535 40.9658 39.5895 40.7493 40.5099C40.5327 41.4304 47.2466 60.0559 46.8134 64.9289C46.3261 69.8019 42.8609 74.0251 43.5648 76.3533C43.5648 76.3533 49.304 77.2196 54.7185 77.5445V77.7611C60.2953 78.4649 72.6402 76.6241 72.6402 76.6241C73.344 74.2959 69.8247 70.1268 69.3915 65.1996C68.8501 60.3267 75.6181 41.7011 75.4015 40.7806Z" fill="#FFE925"/>
<path d="M72.5862 50.3646C70.2038 52.3137 67.3342 53.8298 64.6812 54.8585C59.754 56.7536 52.986 56.4287 48.3838 53.7756C46.218 52.5303 44.4854 50.7436 43.0776 48.7402C44.8644 54.6961 47.0302 62.1138 46.7594 64.9293C46.2721 69.8023 42.8069 74.0255 43.5108 76.3537C43.5108 76.3537 49.2501 77.22 54.6645 77.5449V77.7615C60.2413 78.4654 72.5862 76.6245 72.5862 76.6245C73.2901 74.2963 69.7707 70.1272 69.3375 65.2C69.0668 62.6011 70.9077 56.0497 72.5862 50.3646Z" fill="#FFC225"/>
<path d="M41.1825 40.0767C41.1825 40.0767 23.7481 61.5177 26.0763 66.0117C28.4587 70.5598 41.1284 77.003 44.3771 77.003L48.9252 73.7543C48.9252 73.7543 36.851 63.8459 37.2842 61.8968C37.7173 59.9476 47.1925 49.1729 47.1925 49.1729C47.1925 49.1729 44.5936 37.8568 41.1825 40.0767Z" fill="#FFE925"/>
<path d="M37.2839 61.9519C37.6629 60.2192 45.0807 51.6645 46.8133 49.6611C41.832 52.1518 37.6088 56.2126 35.2806 61.3021C33.4938 65.3088 33.3314 69.3696 34.6309 73.0514C38.5834 75.3255 42.6983 77.0039 44.3768 77.0039L48.9249 73.7553C48.9249 73.8094 36.8508 63.901 37.2839 61.9519Z" fill="#FFC225"/>
<path d="M47.8422 83.9338C47.8422 83.9338 20.0663 61.3016 15.3016 69.3149C10.5369 77.2741 24.3437 91.7306 44.5936 94.4919L47.8422 83.9338Z" fill="#36DEF4"/>
<path d="M75.7265 40.7271C75.7265 40.7271 93.1609 62.1681 90.8327 66.6621C88.4504 71.2102 75.7807 77.6534 72.532 77.6534L67.9839 74.4047C67.9839 74.4047 80.058 64.4963 79.6249 62.5471C79.1917 60.598 69.7165 49.8233 69.7165 49.8233C69.7165 49.8233 72.2613 38.5071 75.7265 40.7271Z" fill="#FFE925"/>
<path d="M87.5841 68.3405C84.7145 63.1969 81.0868 58.757 76.3763 55.2918C74.6978 54.0465 73.0194 52.747 71.395 51.4476C71.1243 51.231 70.8536 51.0144 70.5829 50.7979C72.8569 53.4509 79.3542 60.9769 79.6791 62.6013C80.1122 64.5505 68.0381 74.4588 68.0381 74.4588L72.5862 77.7075C75.2393 77.7075 84.2813 73.3218 88.7753 69.261C88.2339 69.0986 87.8548 68.8278 87.5841 68.3405Z" fill="#FFC225"/>
<path d="M69.9331 83.9338C69.9331 83.9338 97.7091 61.3016 102.474 69.3149C107.238 77.2741 93.4317 91.7306 73.1818 94.4919L69.9331 83.9338Z" fill="#36DEF4"/>
<path d="M69.3913 15.2798C68.9581 9.91953 64.3559 5.69629 58.6707 5.69629C52.769 5.69629 47.9502 10.2985 47.9502 15.9837C47.9502 16.85 48.0585 17.6621 48.2751 18.4202C48.7624 22.6975 50.8198 31.5772 59.5912 33.2557C59.5912 33.2557 70.2576 31.5772 69.3913 15.2798Z" fill="#F12272"/>
<path d="M52.9317 10.9473C52.9317 10.9473 60.8368 15.8203 66.1429 16.4159C71.449 17.0115 69.0125 20.4226 69.2833 20.8557C69.554 21.2889 72.3153 14.6833 67.9838 8.24012C63.6522 1.79697 54.3395 3.8003 50.6035 8.24012C50.6035 8.18598 51.6323 9.91859 52.9317 10.9473Z" fill="#6A3680"/>
<path d="M53.9063 10.7861C53.9063 10.7861 47.5715 14.6844 48.4378 22.6978C48.4378 22.6978 43.1316 12.3563 51.7406 6.8877C51.7947 6.8877 56.2345 7.32085 53.9063 10.7861Z" fill="#4C1A74"/>
<path d="M49.4662 25.3773C50.246 25.0724 50.4193 23.6512 49.8531 22.2029C49.2869 20.7547 48.1958 19.8277 47.4159 20.1326C46.6361 20.4374 46.4629 21.8586 47.029 23.3069C47.5952 24.7552 48.6863 25.6821 49.4662 25.3773Z" fill="#F12272"/>
<path d="M69.4498 25.3654C70.2609 25.5732 71.2314 24.5207 71.6175 23.0144C72.0036 21.5081 71.659 20.1185 70.848 19.9106C70.0369 19.7027 69.0664 20.7553 68.6803 22.2615C68.2942 23.7678 68.6387 25.1575 69.4498 25.3654Z" fill="#F12272"/>
<path d="M53.4191 11.0551C53.4191 11.0551 48.2754 19.1767 50.7119 25.0784C50.7119 25.0784 50.2246 26.1613 49.8456 25.674C49.4665 25.1326 47.4091 19.9347 47.7881 17.1192C48.1671 14.3037 51.0367 9.80978 53.4191 11.0551Z" fill="#6A3680"/>
<path d="M68.3628 16.8497C68.3628 16.8497 68.5794 24.9172 67.9297 27.4619C67.9297 27.4619 68.2004 28.1117 68.6877 27.6785C69.175 27.2454 70.5827 18.9072 70.1496 17.337C69.7164 15.7668 68.7418 16.2 68.3628 16.8497Z" fill="#6A3680"/>
<path d="M24.1816 75.3252C24.1816 75.3252 32.8447 79.386 34.848 82.7971" stroke="#3F2F7C" stroke-width="0.816" stroke-miterlimit="10"/>
<path d="M90.4536 75.6504C90.4536 75.6504 82.3861 79.9819 80.3828 83.7179" stroke="#3F2F7C" stroke-width="0.816" stroke-miterlimit="10"/>
<path d="M83.6858 61.7354H33.061V93.4097H83.6858V61.7354Z" fill="#3F2F7C"/>
<path opacity="0.36" d="M78.9753 61.7354C78.2172 70.1818 74.9686 78.3035 68.0381 83.7179C62.7862 87.7787 56.343 89.5654 49.7374 89.403C44.1064 89.2947 38.5837 88.1577 33.061 87.5621V93.4097H83.6858V61.7354H78.9753Z" fill="#3F2F7C"/>
<path d="M57.8584 79.6569C58.905 79.6569 59.7535 78.7358 59.7535 77.5995C59.7535 76.4632 58.905 75.542 57.8584 75.542C56.8118 75.542 55.9634 76.4632 55.9634 77.5995C55.9634 78.7358 56.8118 79.6569 57.8584 79.6569Z" fill="#DDD6FE"/>
<path d="M84.4439 96.6576H32.9528C31.9782 96.6576 31.2202 95.8996 31.2202 94.925C31.2202 93.9504 31.9782 93.1924 32.9528 93.1924H84.4439C85.4185 93.1924 86.1765 93.9504 86.1765 94.925C86.1765 95.8455 85.3644 96.6576 84.4439 96.6576Z" fill="#1E154A"/>
<line x1="24.6974" y1="45.5892" x2="21.755" y2="55.1465" stroke="#FFCF06" stroke-width="2"/>
<line x1="28.0046" y1="51.8385" x2="18.4473" y2="48.8961" stroke="#FFCF06" stroke-width="2"/>
<circle cx="16.2261" cy="57.3682" r="1" fill="#FFCF06"/>
<circle cx="6.72607" cy="45.8682" r="3.5" fill="#FFCF06"/>
<path d="M12.9078 60.8405C13.2679 61.4643 13.353 62.1185 13.163 62.8033C12.9763 63.4758 12.5483 64.0772 11.8789 64.6074L12.6192 65.8897L11.4409 66.57L10.7139 65.3108C10.1757 65.5702 9.63658 65.748 9.09653 65.8442C8.56418 65.9359 8.0524 65.9387 7.56118 65.8527L7.44253 64.4733C8.41489 64.6102 9.30555 64.481 10.1145 64.0858L8.72724 61.683C8.13567 61.85 7.61829 61.9588 7.17511 62.0093C6.72747 62.0521 6.29536 61.9884 5.87877 61.8182C5.45773 61.6402 5.1027 61.301 4.81369 60.8004C4.57359 60.3845 4.45969 59.9472 4.47198 59.4883C4.47983 59.0216 4.60412 58.57 4.84483 58.1332C5.08881 57.6843 5.4356 57.289 5.88521 56.9472L5.14489 55.665L6.32319 54.9847L7.05683 56.2554C7.53463 56.0514 8.0166 55.9169 8.50274 55.8519C8.98887 55.7868 9.43786 55.7997 9.84969 55.8906L9.96833 57.2699C9.13936 57.1324 8.37089 57.2064 7.66293 57.4919L9.11021 59.9987C9.70178 59.8317 10.2115 59.7274 10.6392 59.6858C11.0626 59.6365 11.4765 59.6953 11.8809 59.8623C12.2854 60.0292 12.6276 60.3553 12.9078 60.8405ZM6.2572 59.8592C6.41282 60.1287 6.63196 60.2949 6.91461 60.3576C7.19281 60.4126 7.53469 60.4 7.94024 60.3199L6.65303 58.0904C6.36189 58.3509 6.17786 58.6369 6.10093 58.9482C6.03171 59.2552 6.0838 59.5588 6.2572 59.8592ZM11.0977 63.4412C11.3812 63.1851 11.5542 62.9158 11.6169 62.6331C11.6752 62.3428 11.6176 62.0474 11.4442 61.7471C11.3064 61.5083 11.1105 61.3647 10.8566 61.3162C10.6027 61.2677 10.2851 61.2867 9.90388 61.3734L11.0977 63.4412Z" fill="#FFCF06"/>
</svg>
