<svg width="73" height="122" viewBox="0 0 73 122" fill="none" xmlns="http://www.w3.org/2000/svg">
<path d="M18.2537 32.5473C16.909 34.2763 15.132 37.43 14.4116 38.7907L58.836 39.0309C57.7955 36.6295 55.3781 31.5388 54.0334 30.3861C52.6886 29.2335 48.9906 28.1449 47.3097 27.7447C47.2296 30.5462 44.8603 36.1493 36.0235 36.1493C27.1866 36.1493 24.3371 31.3467 24.0169 28.9453C23.6967 29.0254 22.8162 29.2815 21.8557 29.6657C20.6551 30.146 19.9347 30.3861 18.2537 32.5473Z" fill="#FFE925"/>
<path d="M24.0073 28.9443C24.9678 28.5441 27.1771 27.6476 28.3297 27.2634L31.2113 26.0627C31.4514 26.0627 31.9317 25.3423 31.9317 24.8621V20.2996L41.5369 21.02C41.4569 22.3007 41.3928 24.9581 41.777 25.3423C42.1612 25.7265 42.8976 26.1428 43.2178 26.3028L47.3001 27.7436C47.3001 30.5452 45.0428 36.1482 36.0139 36.1482C26.985 36.1482 24.2475 31.1855 24.0073 28.9443Z" fill="#F12272"/>
<mask id="mask0" mask-type="alpha" maskUnits="userSpaceOnUse" x="24" y="20" width="24" height="17">
<path d="M24.0073 28.9443C24.9678 28.5441 27.1771 27.6476 28.3297 27.2634L31.2113 26.0627C31.4514 26.0627 31.9317 25.3423 31.9317 24.8621V20.2996L41.5369 21.02C41.4569 22.3007 41.3928 24.9581 41.777 25.3423C42.1612 25.7265 42.8976 26.1428 43.2178 26.3028L47.3001 27.7436C47.3001 30.5452 45.0428 36.1482 36.0139 36.1482C26.985 36.1482 24.2475 31.1855 24.0073 28.9443Z" fill="#F12272"/>
</mask>
<g mask="url(#mask0)">
<path d="M31.2198 28.7044C28.7224 29.6649 25.2165 29.1846 24.4961 28.7044L28.5504 22.2208L30.2593 18.1386L39.1441 20.7801C35.7823 25.1024 33.7171 27.7439 31.2198 28.7044Z" fill="#BE034D"/>
</g>
<path d="M27.9845 10.3079C27.9845 3.74957 34.2799 -0.202215 37.9118 0.00798747C43.4809 0.00798747 46.3864 5.26302 46.6285 10.3079C46.8707 15.3527 43.2387 20.6077 41.7859 21.8689C40.3332 23.1301 37.1855 23.3403 34.7642 22.9199C32.3899 22.5077 27.9845 18.5057 27.9845 10.3079Z" fill="#F12272"/>
<mask id="mask1" mask-type="alpha" maskUnits="userSpaceOnUse" x="28" y="0" width="19" height="24">
<path d="M28.0991 10.3297C28.0991 3.75753 34.3425 -0.202644 37.9445 0.00800442C43.4676 0.00800442 46.3491 5.27419 46.5893 10.3297C46.8294 15.3853 43.2274 20.6514 41.7866 21.9153C40.3458 23.1792 37.2241 23.3899 34.8228 22.9686C32.4681 22.5555 28.0991 18.545 28.0991 10.3297Z" fill="#F12272"/>
</mask>
<g mask="url(#mask1)">
<path d="M30.9817 16.8596C29.3008 13.0679 29.7811 6.60802 29.7811 4.64197L28.1001 5.69521L26.8995 10.1188C26.8194 12.7168 27.1396 19.3873 30.9817 21.9151C35.7843 25.0748 42.7482 22.3364 41.3074 22.3364C39.8666 22.3364 37.2251 21.9151 36.2646 21.4938C35.3041 21.0725 32.2988 19.8305 30.9817 16.8596Z" fill="#BE034D"/>
</g>
<rect x="4.07373" y="41.1917" width="64.8356" height="80.6842" rx="15" fill="#6A3680"/>
<rect x="4.0791" y="38.7894" width="64.8356" height="80.6842" rx="15" fill="#1C0C4A"/>
<rect x="7.44141" y="42.1523" width="58.1119" height="73.9607" rx="11" fill="#36DEF4"/>
<mask id="mask2" mask-type="alpha" maskUnits="userSpaceOnUse" x="7" y="42" width="59" height="75">
<rect x="7.44141" y="42.1523" width="58.1119" height="73.9607" rx="11" fill="#00A9E0"/>
</mask>
<g mask="url(#mask2)">
<path d="M59.7959 96.0596C59.7959 94.4027 61.139 93.0596 62.7959 93.0596H65.5591V112.27H62.7959C61.139 112.27 59.7959 110.927 59.7959 109.27V96.0596Z" fill="white"/>
<path d="M27.1375 85.135C14.6507 68.6139 9.60795 50.2358 8.64743 43.1119H6.00598V120.674H64.8381V114.911C57.4741 111.87 39.6244 101.656 27.1375 85.135Z" fill="#25B1FF"/>
</g>
<rect x="12.7283" y="46.9547" width="47.5461" height="8.16448" rx="4.08224" fill="white"/>
<rect x="37.2244" y="61.3619" width="24.9737" height="3.84211" rx="1.92105" fill="white"/>
<rect x="37.2244" y="68.5674" width="13.9276" height="3.84211" rx="1.92105" fill="white"/>
<circle cx="23.055" cy="70.2473" r="11.2862" fill="white"/>
<circle cx="23.0533" cy="66.4047" r="3.60197" fill="#25B1FF"/>
<path fill-rule="evenodd" clip-rule="evenodd" d="M14.6872 74.461C16.8201 72.3036 19.7814 70.9669 23.0548 70.9669C26.3271 70.9669 29.2874 72.3027 31.4202 74.4587C29.8785 77.5158 26.7107 79.6125 23.0532 79.6125C19.3965 79.6125 16.2293 77.5168 14.6872 74.461Z" fill="#25B1FF"/>
<rect x="37.2244" y="75.769" width="11.0461" height="11.0461" rx="3" fill="white"/>
<rect x="10.8091" y="93.0596" width="21.6119" height="19.2106" rx="3" fill="white"/>
<rect x="35.3052" y="93.0596" width="21.6119" height="19.2106" rx="3" fill="white"/>
<rect x="51.1475" y="75.769" width="11.0461" height="11.0461" rx="3" fill="white"/>
<path d="M0 65.9252C0 62.6594 2.72149 58.0009 4.08223 56.0798V65.445H6.9638C7.36402 65.445 8.16446 65.6851 8.16446 66.6456C8.16446 67.6061 6.72367 67.8463 6.00328 67.8463H7.20393C7.92433 67.7662 9.36511 67.8463 9.36511 68.8068C9.36511 69.5866 8.41979 69.8937 7.45006 69.9912C8.03943 69.9939 8.88485 70.2802 8.88485 71.4482C8.88485 72.4836 7.55625 72.8262 6.43346 72.8925C7.06366 72.9681 7.68419 73.2192 7.68419 73.8496C7.68419 74.8101 6.72367 75.0502 6.24341 75.0502H3.1217C2.16118 75.0502 1.68092 74.0897 0.960524 72.6489C0.240131 71.2081 0 70.0075 0 65.9252Z" fill="#F12272"/>
<path d="M73 65.9252C73 62.6594 70.2785 58.0009 68.9178 56.0798V65.445H66.0362C65.636 65.445 64.8355 65.6851 64.8355 66.6456C64.8355 67.6061 66.2763 67.8463 66.9967 67.8463H65.7961C65.0757 67.7662 63.6349 67.8463 63.6349 68.8068C63.6349 69.5866 64.5802 69.8937 65.5499 69.9912C64.9606 69.9939 64.1152 70.2802 64.1152 71.4482C64.1152 72.4836 65.4438 72.8262 66.5665 72.8925C65.9363 72.9681 65.3158 73.2192 65.3158 73.8496C65.3158 74.8101 66.2763 75.0502 66.7566 75.0502H69.8783C70.8388 75.0502 71.3191 74.0897 72.0395 72.6489C72.7599 71.2081 73 70.0075 73 65.9252Z" fill="#F12272"/>
</svg>
