<svg width="154" height="105" viewBox="0 0 154 105" fill="none" xmlns="http://www.w3.org/2000/svg">
<path fill-rule="evenodd" clip-rule="evenodd" d="M0 20.898C0 16.3897 2.26873 12.1841 6.03632 9.70826L17.6502 2.0763C19.1841 1.06827 21.0013 1.24076 22.3036 2.16327L25.9631 3.94592L27.1224 7.66688L24.0326 8.60728V24.9914C24.0326 29.4996 21.7638 33.7053 17.9963 36.1811L7.07501 43.3579L6.45352 45.8148L3.27251 44.4052C1.48541 44.0213 0 42.4634 0 40.3701V20.898Z" fill="#CDE6F2"/>
<path d="M4.48413 23.0158C4.48413 18.5076 6.75286 14.302 10.5204 11.8261L22.1343 4.19416C24.8739 2.39386 28.5167 4.35898 28.5167 7.63715V27.1092C28.5167 31.6175 26.248 35.8231 22.4804 38.299L10.8665 45.9309C8.12696 47.7312 4.48413 45.7661 4.48413 42.4879V23.0158Z" fill="#EFF9FB"/>
<path d="M8.5 15L28 12L23.5 37L8 39L8.5 15Z"/>
<path fill-rule="evenodd" clip-rule="evenodd" d="M23.6892 20.898C23.6892 16.3897 25.9579 12.1841 29.7255 9.70826L41.3394 2.0763C42.8733 1.06827 44.6905 1.24076 45.9928 2.16327L49.6523 3.94592L50.8117 7.66688L47.7218 8.60728V24.9914C47.7218 29.4996 45.4531 33.7053 41.6855 36.1811L30.7642 43.3579L30.1427 45.8148L26.9617 44.4052C25.1746 44.0213 23.6892 42.4634 23.6892 40.3701V20.898Z" fill="#CDE6F2"/>
<path d="M28.1733 23.0158C28.1733 18.5076 30.4421 14.302 34.2097 11.8261L45.8235 4.19416C48.5631 2.39386 52.2059 4.35898 52.2059 7.63715V27.1092C52.2059 31.6175 49.9372 35.8231 46.1696 38.299L34.5558 45.9309C31.8162 47.7312 28.1733 45.7661 28.1733 42.4879V23.0158Z" fill="#EFF9FB"/>
<path d="M44.7332 16.6713V14.0293C44.7332 14.0293 41.2697 14.8981 40.0421 17.617C39.2091 18.9025 39.2091 24.1421 39.2091 24.1421L36.8417 25.7025V29.4852L39.2091 27.9721V36.3886L41.9712 34.6391V26.0807L44.7332 24.3312V20.6431L41.9712 22.3453V19.6974C41.9712 19.6974 41.9712 18.6572 42.8042 17.8534C43.6371 17.0495 44.7332 16.6713 44.7332 16.6713Z" fill="#5786FF"/>
<path fill-rule="evenodd" clip-rule="evenodd" d="M46.3905 20.898C46.3905 16.3897 48.6592 12.1841 52.4268 9.70826L64.0407 2.0763C65.5746 1.06827 67.3918 1.24076 68.6941 2.16327L72.3536 3.94592L73.5129 7.66688L70.4231 8.60728V24.9914C70.4231 29.4996 68.1543 33.7053 64.3868 36.1811L53.4655 43.3579L52.844 45.8148L49.663 44.4052C47.8759 44.0213 46.3905 42.4634 46.3905 40.3701V20.898Z" fill="#CDE6F2"/>
<path d="M50.8746 23.0158C50.8746 18.5076 53.1434 14.302 56.9109 11.8261L68.5248 4.19416C71.2644 2.39386 74.9072 4.35898 74.9072 7.63715V27.1092C74.9072 31.6175 72.6385 35.8231 68.8709 38.299L57.257 45.9309C54.5175 47.7312 50.8746 45.7661 50.8746 42.4879V23.0158Z" fill="#EFF9FB"/>
<path d="M59.886 21.8293C61.6881 20.9827 63.3401 21.4765 63.9408 21.8293C64.0409 20.7207 64.7518 18.4128 66.7942 18.05C68.8366 17.6872 69.5475 19.0074 69.6476 19.7129C69.0469 19.9144 67.9956 21.0999 67.9956 23.0386C67.9956 26.6668 70.3985 25.6086 70.3985 25.6086C70.1482 27.8257 69.3172 32.4113 67.9956 33.0159C66.6741 33.6206 65.1422 33.3687 64.5415 33.1671C64.3413 33.4695 63.7005 34.3765 62.7394 35.5859C61.7783 36.7952 60.8371 36.4929 60.4867 36.1905C60.2865 36.1402 59.6157 35.4649 58.5344 33.1671C57.4531 30.8693 56.8824 28.7832 57.0326 26.3644C57.1828 23.9457 58.0839 22.6758 59.886 21.8293Z" fill="#1E1E1E"/>
<path d="M63.3401 13.666C62.6193 15.4801 63.1399 17.6469 63.4903 18.5035C64.2412 18.05 65.8631 16.8406 66.3437 15.6312C66.8242 14.4219 66.5439 12.3055 66.3437 11.3984C65.6428 11.3984 64.061 11.852 63.3401 13.666Z" fill="#1E1E1E"/>
<path d="M94.579 38.2219C93.5491 38.5652 65.225 51.4398 65.225 51.4398H93.3774L103.782 39.3013C104.156 38.8651 103.861 38.1919 103.287 38.1742C100.686 38.0938 95.3533 37.9639 94.579 38.2219Z" fill="#FFE925"/>
<mask id="mask0" mask-type="alpha" maskUnits="userSpaceOnUse" x="65" y="38" width="39" height="14">
<path d="M94.579 38.2219C93.5491 38.5652 65.225 51.4398 65.225 51.4398H93.3774L103.782 39.3013C104.156 38.8651 103.861 38.1919 103.287 38.1742C100.686 38.0938 95.3533 37.9639 94.579 38.2219Z" fill="#FED845"/>
</mask>
<g mask="url(#mask0)">
<path d="M89.4292 43.5434C89.8412 40.7968 94.9796 38.3936 97.4973 37.5353L96.4673 36.8486L89.7726 38.2219L76.2113 40.7968L64.3667 51.9548H72.0915L95.4374 51.4398L98.0123 47.6633C94.9796 47.4344 89.0172 46.29 89.4292 43.5434Z" fill="#F2994A"/>
</g>
<path d="M6.00186 58.9932C4.21658 59.9545 3.08362 62.0831 3.08362 63.113C3.08361 65.0013 6.00186 67.9195 6.00186 67.9195C10.465 72.3827 19.1053 71.5244 22.8247 71.5244H110.715C112.947 71.5244 121.873 69.4645 128.911 64.4863C134.542 60.5038 141.786 50.5818 144.704 46.1186C147.165 42.5137 152.36 34.7889 153.459 32.729C154.557 30.6691 153.344 30.0396 152.601 29.9824H146.764C143.331 29.9824 142.244 31.0124 142.129 31.5274C139.898 34.4456 134.439 41.2091 130.456 44.9169C126.474 48.6248 121.129 50.0096 118.955 50.2384H33.296C30.6066 50.1812 23.7516 50.4444 17.8465 51.9551C11.9413 53.4657 9.2062 56.7044 8.57678 58.1349C8.46234 58.0204 7.78714 58.0319 6.00186 58.9932Z" fill="#FFE925"/>
<mask id="mask1" mask-type="alpha" maskUnits="userSpaceOnUse" x="3" y="29" width="151" height="43">
<path d="M6.00186 58.9932C4.21658 59.9545 3.08362 62.0831 3.08362 63.113C3.08361 65.0013 6.00186 67.9195 6.00186 67.9195C10.465 72.3827 19.1053 71.5244 22.8247 71.5244H110.715C112.947 71.5244 121.873 69.4645 128.911 64.4863C134.542 60.5038 141.786 50.5818 144.704 46.1186C147.165 42.5137 152.36 34.7889 153.459 32.729C154.557 30.6691 153.344 30.0396 152.601 29.9824H146.764C143.331 29.9824 142.244 31.0124 142.129 31.5274C139.898 34.4456 134.439 41.2091 130.456 44.9169C126.474 48.6248 121.129 50.0096 118.955 50.2384H33.296C30.6066 50.1812 23.7516 50.4444 17.8465 51.9551C11.9413 53.4657 9.2062 56.7044 8.57678 58.1349C8.46234 58.0204 7.78714 58.0319 6.00186 58.9932Z" fill="#FED845"/>
</mask>
<g mask="url(#mask1)">
<path d="M13.2116 66.3746C7.58114 65.0013 4.80023 60.767 4.11358 58.8215L0.337036 55.2166V72.5544L66.7699 85.0857L124.963 77.0176L149.339 40.9688C144.819 46.4047 133.615 58.4095 124.963 62.9414C116.311 67.4732 108.77 68.034 106.08 67.7479H38.2742C32.266 67.8623 18.8421 67.7479 13.2116 66.3746Z" fill="#F2994A"/>
<path d="M12.6966 59.5082H5.14355L9.7784 54.8733H12.6966C12.6966 54.8733 16.9882 54.7016 16.9882 57.2766C16.9882 59.8515 12.6966 59.5082 12.6966 59.5082Z" fill="#F2994A"/>
</g>
<path fill-rule="evenodd" clip-rule="evenodd" d="M53.8953 59.6794C55.033 59.6794 55.9552 58.7572 55.9552 57.6195C55.9552 56.4818 55.033 55.5596 53.8953 55.5596C52.7576 55.5596 51.8353 56.4818 51.8353 57.6195C51.8353 58.7572 52.7576 59.6794 53.8953 59.6794ZM46.6855 59.6794C47.8232 59.6794 48.7455 58.7572 48.7455 57.6195C48.7455 56.4818 47.8232 55.5596 46.6855 55.5596C45.5479 55.5596 44.6256 56.4818 44.6256 57.6195C44.6256 58.7572 45.5479 59.6794 46.6855 59.6794ZM63.165 57.6195C63.165 58.7572 62.2427 59.6794 61.1051 59.6794C59.9674 59.6794 59.0451 58.7572 59.0451 57.6195C59.0451 56.4818 59.9674 55.5596 61.1051 55.5596C62.2427 55.5596 63.165 56.4818 63.165 57.6195ZM68.3148 59.6794C69.4525 59.6794 70.3748 58.7572 70.3748 57.6195C70.3748 56.4818 69.4525 55.5596 68.3148 55.5596C67.1772 55.5596 66.2549 56.4818 66.2549 57.6195C66.2549 58.7572 67.1772 59.6794 68.3148 59.6794ZM77.5845 57.6195C77.5845 58.7572 76.6623 59.6794 75.5246 59.6794C74.3869 59.6794 73.4647 58.7572 73.4647 57.6195C73.4647 56.4818 74.3869 55.5596 75.5246 55.5596C76.6623 55.5596 77.5845 56.4818 77.5845 57.6195ZM82.7344 59.6794C83.8721 59.6794 84.7943 58.7572 84.7943 57.6195C84.7943 56.4818 83.8721 55.5596 82.7344 55.5596C81.5967 55.5596 80.6745 56.4818 80.6745 57.6195C80.6745 58.7572 81.5967 59.6794 82.7344 59.6794ZM92.0041 57.6195C92.0041 58.7572 91.0818 59.6794 89.9442 59.6794C88.8065 59.6794 87.8842 58.7572 87.8842 57.6195C87.8842 56.4818 88.8065 55.5596 89.9442 55.5596C91.0818 55.5596 92.0041 56.4818 92.0041 57.6195ZM97.1539 59.6794C98.2916 59.6794 99.2138 58.7572 99.2138 57.6195C99.2138 56.4818 98.2916 55.5596 97.1539 55.5596C96.0162 55.5596 95.094 56.4818 95.094 57.6195C95.094 58.7572 96.0162 59.6794 97.1539 59.6794ZM106.424 57.6195C106.424 58.7572 105.501 59.6794 104.364 59.6794C103.226 59.6794 102.304 58.7572 102.304 57.6195C102.304 56.4818 103.226 55.5596 104.364 55.5596C105.501 55.5596 106.424 56.4818 106.424 57.6195ZM111.574 59.6794C112.711 59.6794 113.633 58.7572 113.633 57.6195C113.633 56.4818 112.711 55.5596 111.574 55.5596C110.436 55.5596 109.514 56.4818 109.514 57.6195C109.514 58.7572 110.436 59.6794 111.574 59.6794Z" fill="#F2994A"/>
<path d="M95.609 65.3447H66.771C65.7491 65.3447 65.3775 66.606 66.2695 67.1045C78.7823 74.0966 107.601 85.4398 108.484 85.9441C109.445 86.4934 110.83 86.6307 111.402 86.6307H117.067C119.298 86.6307 118.955 85.9441 118.955 85.2574L95.609 65.3447Z" fill="#FFE925"/>
<mask id="mask2" mask-type="alpha" maskUnits="userSpaceOnUse" x="65" y="65" width="54" height="22">
<path d="M95.609 65.3447H66.771C65.7491 65.3447 65.3775 66.606 66.2695 67.1045C78.7823 74.0966 107.601 85.4398 108.484 85.9441C109.445 86.4934 110.83 86.6307 111.402 86.6307H117.067C119.298 86.6307 118.955 85.9441 118.955 85.2574L95.609 65.3447Z" fill="#FED845"/>
</mask>
<g mask="url(#mask2)">
<path d="M93.5491 71.6965C92.0385 68.5379 92.9197 65.6883 93.5491 64.6584L91.6608 62.9417L62.4784 62.4268L60.9335 66.2033L67.9716 75.6447L111.574 88.8626C106.195 84.4566 95.0597 74.855 93.5491 71.6965Z" fill="#F2994A"/>
</g>
<path fill-rule="evenodd" clip-rule="evenodd" d="M47.2464 29.8125H45.8731V29.8125H45.7014C45.587 30.6708 45.1521 32.6621 44.3281 33.7607C43.5042 34.8594 42.726 35.134 42.4399 35.134V49.5536C42.4399 49.8397 42.2682 50.6522 41.5816 51.6135C40.8949 52.5748 40.1511 52.9296 39.865 52.9868V68.608C39.865 69.5807 39.6246 71.6979 38.6633 72.3845C37.702 73.0711 36.8895 73.815 36.6034 74.1011V104.142L37.9767 105L38.2628 104.142H47.0747L56.3444 104.142V74.1011C56.0583 73.815 55.2458 73.0711 54.2845 72.3845C53.3232 71.6978 53.0829 69.5807 53.0829 68.6079V52.9868C52.7968 52.9295 52.0529 52.5748 51.3663 51.6135C50.6796 50.6522 50.508 49.8396 50.508 49.5535V35.134C50.2219 35.134 49.4437 34.8593 48.6197 33.7607C48.1557 33.1421 47.8151 32.2404 47.5856 31.4174L47.933 31.1858L48.6197 30.6708L47.2464 29.8125H47.2464Z" fill="#851914"/>
<path fill-rule="evenodd" clip-rule="evenodd" d="M48.448 30.6709H47.0747C46.9603 31.5292 46.5254 33.5205 45.7014 34.6191C44.8775 35.7177 44.0993 35.9924 43.8132 35.9924V50.4119C43.8132 50.698 43.6415 51.5106 42.9549 52.4719C42.2682 53.4332 41.5243 53.7879 41.2382 53.8452V69.4663C41.2382 70.4391 40.9979 72.5562 40.0366 73.2429C39.0753 73.9295 38.2628 74.6734 37.9767 74.9595V105L47.2464 105H57.7178V74.9595C57.4317 74.6734 56.6191 73.9295 55.6578 73.2429C54.6965 72.5563 54.4562 70.4391 54.4562 69.4664V53.8452C54.1701 53.788 53.4262 53.4332 52.7396 52.4719C52.0529 51.5106 51.8813 50.6981 51.8813 50.412V35.9924C51.5952 35.9924 50.817 35.7178 49.993 34.6191C49.169 33.5205 48.7342 31.5292 48.6197 30.6709H48.448V30.6709Z" fill="#EA3C34"/>
<path d="M78.4887 75.8176C65.9918 63.458 55.4289 44.1175 51.7096 35.9922V41.3137C53.1401 43.3164 60.9655 61.6606 73.8539 74.7876C83.1236 84.229 91.1917 89.7221 101.835 92.4687H112.993C106.698 92.0682 90.9857 88.1772 78.4887 75.8176Z" fill="#EA3C34"/>
<path fill-rule="evenodd" clip-rule="evenodd" d="M63.3826 57.2783H60.636V93.6705H63.3826V57.2783ZM74.3688 72.0412H71.6223V93.6705H74.3688V72.0412ZM80.892 81.3109H83.6386V93.6705H80.892V81.3109ZM93.2516 87.834H90.505V93.6705H93.2516V87.834Z" fill="#EA3C34"/>
<rect x="21.4972" y="92.6406" width="96.1303" height="2.74658" rx="1.37329" fill="#EA3C34"/>
<path d="M25.9604 102.253C25.9604 101.495 26.5753 100.88 27.3337 100.88H101.491C102.25 100.88 102.865 101.495 102.865 102.253C102.865 103.012 102.25 103.626 101.491 103.626H27.3337C26.5753 103.626 25.9604 103.012 25.9604 102.253Z" fill="#EA3C34"/>
<line x1="131.832" y1="26.3904" x2="126.746" y2="27.6173" stroke="#FFE925" stroke-width="1.04632"/>
<line x1="119.471" y1="7.221" x2="116.529" y2="16.7783" stroke="#FFE925" stroke-width="2"/>
<line x1="122.779" y1="13.4704" x2="113.221" y2="10.528" stroke="#FFE925" stroke-width="2"/>
<line x1="26.9557" y1="76.2942" x2="24.0133" y2="85.8516" stroke="#FFE925" stroke-width="2"/>
<line x1="30.2631" y1="82.5436" x2="20.7058" y2="79.6012" stroke="#FFE925" stroke-width="2"/>
<line x1="129.903" y1="29.5465" x2="128.676" y2="24.4608" stroke="#FFE925" stroke-width="1.04632"/>
<circle cx="111" cy="27" r="1" fill="#FFE925"/>
<circle cx="101.5" cy="7.5" r="3.5" fill="#FFE925"/>
<circle cx="14.5" cy="98.5" r="3.5" fill="#FFE925"/>
<circle cx="6.5" cy="78.5" r="1.5" fill="#FFE925"/>
</svg>
