<svg width="128" height="128" viewBox="0 0 128 128" fill="none" xmlns="http://www.w3.org/2000/svg">
<path fill-rule="evenodd" clip-rule="evenodd" d="M9.62328 41.8708L6.6327 43.5974L8.35932 46.588L11.3499 44.8614L9.62328 41.8708ZM21.5865 34.9643L24.577 33.2377L26.3036 36.2282L29.294 34.5017L31.0206 37.4923L31.0198 37.4927L32.7463 40.4831L29.7557 42.2097L28.0291 39.2192L28.0299 39.2187L26.3034 36.2284L23.3131 37.9549L21.5865 34.9643ZM5.37029 48.3148L8.36087 46.5882L10.0875 49.5787L7.09691 51.3053L5.37029 48.3148ZM7.09703 51.3054L10.0876 49.5787L11.8138 52.5687L14.8032 50.8427L14.8031 50.8425L14.8037 50.8421L13.0774 47.852L16.0677 46.1256L16.0676 46.1254L19.0582 44.3988L20.7848 47.3894L17.7945 49.1158L17.7946 49.1159L20.7849 47.3894L22.5115 50.38L19.521 52.1066L17.7944 49.1161L17.794 49.1164L19.5203 52.1064L16.5299 53.8329L16.5301 53.8332L16.5293 53.8337L18.2558 56.824L15.2652 58.5506L13.5386 55.5601L13.5394 55.5596L11.8133 52.5699L8.82364 54.2959L7.09703 51.3054ZM25.5026 48.6532L25.5028 48.6535L22.5122 50.3801L20.7856 47.3895L20.7864 47.3891L19.0599 44.3988L22.0499 42.6725L22.0498 42.6723L19.0594 44.3988L17.3328 41.4082L20.3234 39.6816L22.0499 42.6721L25.0403 40.9456L26.7665 43.9355L29.7562 42.2095L31.4828 45.2001L28.4924 46.9266L28.4926 46.9269L25.5026 48.6532ZM28.4934 46.9268L31.484 45.2002L33.2105 48.1907L36.2009 46.4642L37.9273 49.4545L40.9178 47.7279L42.6444 50.7185L39.6539 52.4451L37.9274 49.4548L37.927 49.455L39.6536 52.4455L36.663 54.1721L36.6624 54.1724L38.3887 57.1624L35.3981 58.889L33.6719 55.8992L30.6829 57.6249L30.683 57.6251L27.6924 59.3518L27.692 59.3511L27.691 59.3518L25.9644 56.3613L25.9642 56.3615L27.6907 59.3519L24.7013 61.0778L24.7015 61.0782L21.711 62.8048L19.9844 59.8144L19.9842 59.8145L18.2576 56.8239L21.248 55.0974L21.2479 55.0972L21.2477 55.0973L19.5211 52.1067L22.5117 50.3801L24.238 53.3703L24.2385 53.37L22.5123 50.3801L25.5029 48.6535L27.2293 51.6436L30.2194 49.9173L30.2195 49.9173L30.2198 49.9171L28.4934 46.9268ZM33.2098 48.1912L34.9363 51.1815L31.9457 52.9081L31.9457 52.9081L28.9555 54.6344L27.2291 51.6443L27.229 51.6444L28.9552 54.6343L25.9649 56.3608L25.9649 56.3609L28.9549 54.6346L28.9553 54.6352L28.9557 54.6349L28.9556 54.6347L31.9459 52.9083L31.9458 52.9081L34.9364 51.1815L34.9368 51.1812L33.2104 48.1909L33.2098 48.1912ZM12.2751 60.2771L15.2657 58.5505L16.9922 61.5409L16.9927 61.5406L15.2664 58.5505L18.2569 56.8239L19.9836 59.8145L19.9829 59.8149L21.7092 62.805L18.7197 64.531L18.7201 64.5317L18.7194 64.5321L20.4458 67.5221L17.4552 69.2488L15.7287 66.2584L12.7383 67.9849L11.0117 64.9943L14.0022 63.2677L15.7287 66.2581L15.7292 66.2578L14.0029 63.2677L16.9925 61.5417L16.9922 61.5412L14.0017 63.2677L12.2751 60.2771ZM39.6544 52.4452L36.6638 54.1718L38.3904 57.1624L41.381 55.4358L39.6544 52.4452ZM21.7115 62.805L18.7209 64.5316L20.4475 67.5222L23.4371 65.7961L25.1634 68.7861L28.154 67.0595L26.4273 64.069L23.4378 65.795L21.7115 62.805ZM35.3986 58.8889L32.408 60.6155L34.1346 63.6061L37.1252 61.8795L35.3986 58.8889ZM14.3409 43.1347L17.3315 41.4081L19.0581 44.3987L16.0675 46.1253L14.3409 43.1347Z" fill="#6A3680"/>
<path fill-rule="evenodd" clip-rule="evenodd" d="M114.005 14.0549L118.67 16.0068L116.718 20.6718L112.053 18.72L114.005 14.0549ZM95.3439 6.24786L90.6789 4.29603L88.7271 8.96083L84.0625 7.00919L82.1107 11.6742L86.7758 13.6261L88.7275 8.96128L93.3921 10.9129L95.3439 6.24786ZM116.717 20.6719L121.382 22.6237L119.43 27.2885L119.431 27.2888L117.479 31.9539L112.814 30.002L114.766 25.3373L114.765 25.337L116.717 20.6719ZM82.1105 11.6743L86.7755 13.6261L84.8238 18.291L89.4884 20.2426L91.4401 15.5778L96.1052 17.5297L94.1534 22.1944L94.1542 22.1947L94.1541 22.195L98.8184 24.1465L96.8666 28.8116L92.2015 26.8598L92.2016 26.8595L87.5377 24.9082L85.586 29.573L80.9209 27.6211L82.8726 22.9563L82.8719 22.956L84.8237 18.2911L80.1586 16.3393L82.1105 11.6743ZM89.4887 20.2431L89.489 20.2432L87.5374 24.9077L87.5371 24.9076L89.4887 20.2431ZM103.484 26.0985L108.148 28.0503L106.197 32.7151L110.862 34.6669L112.814 30.0018L108.149 28.05L110.1 23.3852L105.436 21.4336L105.436 21.4334L100.771 19.4818L100.771 19.4817L105.436 21.4334L107.388 16.7684L102.723 14.8166L100.771 19.4814L100.771 19.4812L102.723 14.8165L98.0575 12.8647L96.1056 17.5297L96.1063 17.53L94.1547 22.1947L98.8191 24.1462L98.819 24.1465L98.8187 24.1463L96.8669 28.8114L101.532 30.7631L101.532 30.7634L96.8667 28.8117L94.9148 33.4767L94.9155 33.477L92.9638 38.1417L92.9639 38.1417L92.9638 38.1418L92.9636 38.1417L91.0118 42.8068L95.6769 44.7586L95.6769 44.7585L95.6771 44.7585L97.629 40.0935L97.6289 40.0935L99.5807 35.4285L99.5801 35.4282L101.532 30.7638L106.196 32.7155L104.245 37.3799L99.5813 35.4286L97.6294 40.0937L102.293 42.0448L102.293 42.0449L97.6292 40.0937L95.6774 44.7588L100.341 46.7099L100.341 46.7103L100.341 46.7106L98.3896 51.3755L103.055 53.3273L105.006 48.6624L105.007 48.6625L103.055 53.3274L107.72 55.2792L109.672 50.6142L109.671 50.6138L111.623 45.9489L106.958 43.9972L108.91 39.3321L104.246 37.381L104.246 37.3809L108.91 39.3321L110.862 34.667L106.197 32.7152L108.148 28.0504L103.484 26.0987L103.484 26.0985ZM76.2543 25.6692L80.9194 27.621L78.9677 32.2858L78.9684 32.2861L77.0166 36.9512L72.3515 34.9993L74.3032 30.3346L74.3025 30.3343L76.2543 25.6692ZM85.5858 29.5731L80.9207 27.6213L78.9689 32.2863L83.6333 34.2379L83.6333 34.238L78.9687 32.2863L77.0168 36.9514L77.0166 36.9513L75.0648 41.6163L79.7298 43.5682L81.6814 38.9039L86.3451 40.8551L88.297 36.1901L83.6334 34.2389L83.6336 34.2384L88.2975 36.1898L88.2974 36.1899L88.2981 36.1902L86.3465 40.8547L91.0115 42.8065L92.9633 38.1415L92.9627 38.1412L94.9143 33.4767L90.25 31.5251L90.25 31.5251L94.9146 33.4767L96.8664 28.8116L92.2013 26.8598L90.2495 31.5248L85.5856 29.5734L85.5858 29.5731ZM113.576 41.284L108.911 39.3322L106.959 43.9973L111.624 45.9491L113.576 41.284ZM74.303 30.3346L69.638 28.3828L67.6862 33.0478L72.3512 34.9996L70.3994 39.6644L75.0645 41.6163L77.0163 36.9512L72.3513 34.9994L74.303 30.3346ZM116.289 47.9009L111.624 45.9491L109.672 50.6141L114.337 52.566L116.289 47.9009ZM84.3939 45.52L79.7288 43.5681L77.777 48.2332L82.4421 50.185L84.3939 45.52ZM98.3891 51.3756L93.7241 49.4237L91.7722 54.0888L96.4373 56.0406L98.3891 51.3756Z" fill="#6A3680"/>
<path d="M48.2909 113.895C47.2166 108.984 46.5643 102.768 46.3724 100.274L68.4347 98.7394L68.8184 110.058L65.9407 120.418C65.7489 120.738 65.0582 121.377 63.8304 121.377C62.6026 121.377 62.0398 120.738 61.9119 120.418L58.8424 111.593L56.7321 125.981C56.5403 126.301 55.8112 126.979 54.43 127.133C53.0487 127.286 52.1918 126.813 51.936 126.557C51.1686 124.383 49.3652 118.806 48.2909 113.895Z" fill="#36DEF4"/>
<mask id="mask0" mask-type="alpha" maskUnits="userSpaceOnUse" x="46" y="98" width="23" height="30">
<path d="M48.2909 113.895C47.2166 108.984 46.5643 102.768 46.3724 100.274L68.4347 98.7394L68.8184 110.058L65.9407 120.418C65.7489 120.738 65.0582 121.377 63.8304 121.377C62.6026 121.377 62.0398 120.738 61.9119 120.418L58.8424 111.593L56.7321 125.981C56.5403 126.301 55.8112 126.979 54.43 127.133C53.0487 127.286 52.1918 126.813 51.936 126.557C51.1686 124.383 49.3652 118.806 48.2909 113.895Z" fill="#25B1FF"/>
</mask>
<g mask="url(#mask0)">
<path d="M61.9104 103.536C64.4374 102.971 66.1261 99.9202 67.413 99.0379L65.8336 97.6263L53.5495 96.744L46.1791 95.8617L46.7055 106.449L49.5133 127.402L59.6916 132.696L66.8865 120.213L68.8169 107.331C68.0564 109.978 65.9389 115.237 63.5523 115.096C62.1484 114.954 60.3935 111.39 59.6916 109.625L57.7612 108.92L58.2877 111.743C58.1122 114.154 57.3104 118.801 55.4799 118.801C52.7018 118.801 51.4268 116.455 50.7834 114.279C49.9644 112.044 48.8179 107.351 50.7834 106.221C53.2402 104.81 58.7517 104.241 61.9104 103.536Z" fill="#25B1FF"/>
</g>
<path d="M50.0163 52.1208C49.8629 50.893 49.6966 49.6908 49.6326 49.2431C54.3904 50.9314 59.8005 49.0513 61.9108 48.2839C61.7829 48.7316 61.3736 50.164 61.5271 51.5453C61.6806 52.9266 62.6782 54.359 63.0618 54.6148H64.9803C65.7477 54.6148 66.9627 54.8706 67.4743 54.9985C66.8348 58.2599 65.7477 65.9337 57.3065 65.9337C46.9468 65.9337 45.7318 58.5157 45.6039 54.9985C45.7318 54.9985 46.1794 54.9218 46.9468 54.6148C47.7142 54.3079 49.3129 54.1032 50.0163 54.0393C50.0803 53.9114 50.1698 53.3486 50.0163 52.1208Z" fill="#F12272"/>
<mask id="mask1" mask-type="alpha" maskUnits="userSpaceOnUse" x="45" y="48" width="23" height="18">
<path d="M50.0163 52.1208C49.8629 50.893 49.6966 49.6908 49.6326 49.2431C54.3904 50.9314 59.8005 49.0513 61.9108 48.2839C61.7829 48.7316 61.3736 50.164 61.5271 51.5453C61.6806 52.9266 62.6782 54.359 63.0618 54.6148H64.9803C65.7477 54.6148 66.9627 54.8706 67.4743 54.9985C66.8348 58.2599 65.7477 65.7419 55.7717 65.7419C47.9384 65.7419 45.7318 58.5157 45.6039 54.9985C45.7318 54.9985 46.1794 54.9218 46.9468 54.6148C47.7142 54.3079 49.3129 54.1032 50.0163 54.0393C50.0803 53.9114 50.1698 53.3486 50.0163 52.1208Z" fill="#F12272"/>
</mask>
<g mask="url(#mask1)">
<path d="M56.9227 56.7251C54.0067 55.4973 50.2081 51.7371 48.6733 50.0105L49.6326 48.2839L55.9635 47.5165L62.2944 49.2431L64.9802 53.8474V55.1903C64.9802 55.7658 64.7884 56.1495 63.8292 57.1088C62.8699 58.068 60.5678 58.2598 56.9227 56.7251Z" fill="#BE034D"/>
</g>
<path d="M47.1392 33.1283C49.1343 28.6775 53.2782 27.1811 55.3885 27.1811C57.4988 27.1811 59.0336 27.7566 61.9113 30.2506C64.789 32.7446 64.789 38.6918 64.789 42.3369C64.789 45.9819 61.5276 51.1618 55.3885 51.7373C49.2495 52.3129 47.5228 48.2841 46.7555 46.5575C46.3659 45.6809 44.6452 38.6918 47.1392 33.1283Z" fill="#F12272"/>
<mask id="mask2" mask-type="alpha" maskUnits="userSpaceOnUse" x="45" y="27" width="20" height="25">
<path d="M47.1392 33.1283C49.1343 28.6775 53.2782 27.1811 55.3885 27.1811C57.4988 27.1811 59.0336 27.7566 61.9113 30.2506C64.789 32.7446 64.789 38.6918 64.789 42.3369C64.789 45.9819 61.5276 51.1618 55.3885 51.7373C49.2495 52.3129 47.5228 48.2841 46.7555 46.5575C46.3659 45.6809 44.6452 38.6918 47.1392 33.1283Z" fill="#F12272"/>
</mask>
<g mask="url(#mask2)">
<path d="M51.7427 46.7495C49.901 46.7495 48.8011 49.0516 48.4813 50.2027C49.1208 51.3538 51.0904 53.6559 53.853 53.6559C57.3062 53.6559 62.6779 52.313 63.0616 52.1212C63.4453 51.9293 65.7474 50.2027 66.7067 42.1452C67.4741 35.6992 64.8522 32.2971 63.4453 31.4018C63.2534 31.2739 62.793 31.21 62.4861 31.9774C62.1024 32.9366 62.2942 35.0469 62.8698 39.6512C63.4453 44.2555 60.5676 46.7495 57.8818 47.9006C55.1959 49.0516 54.0449 46.7495 51.7427 46.7495Z" fill="#BE034D"/>
</g>
<path d="M83.3978 82.2409L77.8342 65.934H73.8055L70.1604 69.3872L71.1196 70.7301C73.3578 73.9915 77.9493 80.6677 78.4098 81.2816C78.8702 81.8955 78.9853 82.8164 78.9853 83.2001C78.9214 83.3919 78.7167 83.9675 78.4098 84.7348C78.0261 85.6941 78.2179 85.8859 78.9853 87.4207C79.5992 88.6485 80.7759 88.6997 81.2875 88.5718C81.6072 88.9555 82.4769 89.7996 83.3978 90.1065C84.5488 90.4902 84.7407 89.3391 85.6999 88.1881C86.6591 87.037 86.0836 85.3104 85.6999 83.9675C85.393 82.8931 84.0372 82.3687 83.3978 82.2409Z" fill="#F12272"/>
<mask id="mask3" mask-type="alpha" maskUnits="userSpaceOnUse" x="70" y="65" width="17" height="26">
<path d="M83.3978 82.2409L77.8342 65.934H73.8055L70.1604 69.3872L71.1196 70.7301C73.3578 73.9915 77.9493 80.6677 78.4098 81.2816C78.8702 81.8955 78.9853 82.8164 78.9853 83.2001C78.9214 83.3919 78.7167 83.9675 78.4098 84.7348C78.0261 85.6941 78.2179 85.8859 78.9853 87.4207C79.5992 88.6485 80.7759 88.6997 81.2875 88.5718C81.6072 88.9555 82.4769 89.7996 83.3978 90.1065C84.5488 90.4902 84.7407 89.3391 85.6999 88.1881C86.6591 87.037 86.0836 85.3104 85.6999 83.9675C85.393 82.8931 84.0372 82.3687 83.3978 82.2409Z" fill="#F12272"/>
</mask>
<g mask="url(#mask3)">
<path d="M75.1494 71.4971C75.6099 70.2693 77.6434 68.2997 78.6026 67.4684L79.1782 65.7418C78.5387 65.6139 77.183 65.3197 76.876 65.1662C76.5691 65.0128 71.7601 65.486 69.394 65.7418L70.1614 73.7993L78.219 83.1997C78.3468 83.3276 78.7945 83.5834 79.5619 83.5834C80.3293 83.5834 79.8816 82.5602 79.5619 82.0487C77.8992 79.0431 74.689 72.725 75.1494 71.4971Z" fill="#BE034D"/>
<path d="M80.3293 86.653C79.2549 86.8064 78.219 85.5658 77.8353 84.9264L76.876 85.8856L77.0679 88.3796L80.7129 91.4491L84.5499 90.8736L87.2357 88.5714L89.1542 85.5019L84.358 82.0487V84.159C84.358 84.9264 83.7185 86.0135 83.3988 86.4611C83.5267 86.5251 83.8976 86.653 84.358 86.653C84.8184 86.653 85.0615 85.8856 85.1254 85.5019C85.1893 85.6298 85.3172 86.0774 85.3172 86.8448C85.3172 87.6122 84.2941 87.6761 83.7825 87.6122C83.7825 87.7401 83.8208 88.111 83.9743 88.5714C84.1662 89.147 83.2069 89.3388 82.4396 88.5714C81.8257 87.9575 81.8001 86.5251 81.864 85.8856C81.8001 86.0774 81.4036 86.4995 80.3293 86.653Z" fill="#BE034D"/>
</g>
<path d="M26.2284 77.4447C26.5354 74.9891 28.7864 70.4103 29.8735 68.4279L30.2572 67.6606L33.3267 68.4279L37.1637 74.9507C37.0358 75.2065 36.5881 75.9867 35.8207 77.061C35.0534 78.1353 33.9662 79.2992 33.5186 79.7468L36.78 85.1185C36.78 85.1185 37.7392 84.7348 38.6984 84.7348C39.6576 84.7348 40.1948 85.1569 41.5761 86.8451C42.9574 88.5334 43.4306 89.7228 43.4946 90.1065L43.3027 96.4374C43.3027 96.8211 43.1109 97.742 42.3435 98.3559C41.6864 98.8815 41.17 98.8821 40.9147 98.7911C40.9609 98.9446 41.0006 99.3133 41.0006 100.082C41.0006 101.255 40.5396 101.866 40.2047 102.101C40.316 102.145 40.425 102.442 40.425 103.344C40.425 105.07 39.274 105.07 36.78 105.07C34.286 105.07 29.1061 102.385 27.3795 101.234C25.6529 100.082 25.4611 98.5477 25.4611 95.4782C25.4611 92.4087 26.2284 87.2288 26.4203 84.7348C26.5738 82.7396 26.3563 79.0434 26.2284 77.4447Z" fill="#F12272"/>
<mask id="mask4" mask-type="alpha" maskUnits="userSpaceOnUse" x="25" y="67" width="19" height="39">
<path d="M26.2284 77.4447C26.5354 74.9891 28.7864 70.4103 29.8735 68.4279L30.2572 67.6606L33.3267 68.4279L37.1637 74.9507C37.0358 75.2065 36.5881 75.9867 35.8207 77.061C35.0534 78.1353 33.9662 79.2992 33.5186 79.7468L36.78 85.1185C36.78 85.1185 37.7392 84.7348 38.6984 84.7348C39.6576 84.7348 40.1948 85.1569 41.5761 86.8451C42.9574 88.5334 43.4306 89.7228 43.4946 90.1065L43.3027 96.4374C43.3027 96.8211 43.1109 97.742 42.3435 98.3559C41.6864 98.8815 41.17 98.8821 40.9147 98.7911C40.9609 98.9446 41.0006 99.3133 41.0006 100.082C41.0006 101.255 40.5396 101.866 40.2047 102.101C40.316 102.145 40.425 102.442 40.425 103.344C40.425 105.07 39.274 105.07 36.78 105.07C34.286 105.07 29.1061 102.385 27.3795 101.234C25.6529 100.082 25.4611 98.5477 25.4611 95.4782C25.4611 92.4087 26.2284 87.2288 26.4203 84.7348C26.5738 82.7396 26.3563 79.0434 26.2284 77.4447Z" fill="#F12272"/>
</mask>
<g mask="url(#mask4)">
<path d="M31.4083 73.6076C30.4875 71.7659 30.2573 68.7475 30.2573 67.4686H37.1637L40.6169 75.9098L34.6697 80.3222C34.5418 80.3862 33.9791 80.399 32.7512 79.9385C31.5234 79.4781 30.9607 78.3398 30.8328 77.8282H32.5594C33.1733 77.8282 33.5826 77.4446 33.7105 77.2527C33.3268 76.8051 32.3292 75.4494 31.4083 73.6076Z" fill="#BE034D"/>
<path d="M26.4203 75.9098C26.4203 76.4853 26.6122 78.0968 27.3796 79.9385C28.3388 82.2407 28.5306 82.8162 28.147 85.1184C27.7633 87.4205 27.3796 88.9553 27.7633 93.1759C28.147 97.3965 27.9551 97.0128 30.8328 99.1231C32.981 100.698 36.4099 99.9463 38.1579 99.2671L39.0822 97.7802C38.8264 97.9081 37.9695 98.1255 36.5882 97.9721C35.2069 97.8186 33.7105 97.5244 33.1349 97.3965C34.2221 97.3326 36.6649 97.0128 37.7392 96.2454C38.8136 95.4781 39.338 93.8793 39.4659 93.1759C38.8903 93.3038 37.3555 93.5212 35.8208 93.3678C34.286 93.2143 33.007 92.7922 32.5594 92.6004C34.8616 92.7283 39.4275 92.4469 39.274 90.2982C39.0822 87.6124 34.8616 87.9961 33.7105 88.1879C34.286 87.7403 35.8975 86.9601 37.7392 87.4205C40.0414 87.9961 40.4251 89.7227 40.4251 90.4901C40.4251 91.2575 40.0414 94.5188 41.0006 95.2862C41.9598 96.0536 42.3435 96.0536 42.9191 95.2862C43.3795 94.6723 43.7504 94.3909 43.8783 94.327L43.4946 100.082L39.0822 105.838L34.6697 104.879L23.7345 100.466L22.7753 86.2695L25.8448 75.1424L26.4203 75.9098Z" fill="#BE034D"/>
</g>
<path d="M40.232 55.9578C41.4598 55.6508 44.4526 55.1904 45.7955 54.9986C45.6676 58.3878 47.4837 65.1664 55.7715 65.1664C64.0592 65.1664 67.0264 58.3878 67.4741 54.9986C69.3925 54.9986 70.9273 55.7659 73.6131 57.6844C75.7618 59.2192 78.2174 62.8642 79.1767 64.5909C79.0488 64.9106 78.4476 65.8187 77.0664 66.893C75.6851 67.9673 72.7818 69.387 71.5028 69.9625C71.5028 71.1136 71.5796 74.8354 71.8865 80.5141C72.1935 86.1927 71.3749 95.542 70.9273 99.5068C69.3925 100.274 64.7115 102.001 58.2655 102.768C51.8194 103.536 47.65 101.553 46.371 100.466C45.4118 96.2454 43.4166 87.4205 43.1096 85.8857C42.8027 84.351 40.8075 77.3166 39.8483 73.9913C39.8483 73.9273 39.7332 73.9913 39.2727 74.7587C38.8728 75.4253 38.8299 75.6576 38.8675 75.7071L38.889 75.7179C38.8806 75.7179 38.8731 75.7146 38.8675 75.7071L36.9706 74.7587C35.5637 73.8634 32.4047 71.6508 31.0234 69.9625C29.6421 68.2743 29.2968 66.1896 29.2968 65.3582L31.5989 63.8235C32.75 63.0561 33.9011 61.905 35.0521 60.5621C35.973 59.4878 36.7148 58.7076 36.9706 58.4518C37.5461 57.7484 39.0041 56.2647 40.232 55.9578Z" fill="#FFE925"/>
<mask id="mask5" mask-type="alpha" maskUnits="userSpaceOnUse" x="29" y="54" width="51" height="49">
<path d="M40.232 55.9578C41.4598 55.6508 44.4526 55.1904 45.7955 54.9986C45.6676 58.3878 47.4837 65.1664 55.7715 65.1664C64.0592 65.1664 67.0264 58.3878 67.4741 54.9986C69.3925 54.9986 70.9273 55.7659 73.6131 57.6844C75.7618 59.2192 78.2174 62.8642 79.1767 64.5909C79.0488 64.9106 78.4476 65.8187 77.0664 66.893C75.6851 67.9673 72.7818 69.387 71.5028 69.9625C71.5028 71.1136 71.5796 74.8354 71.8865 80.5141C72.1935 86.1927 71.3749 95.542 70.9273 99.5068C69.3925 100.274 64.7115 102.001 58.2655 102.768C51.8194 103.536 47.65 101.553 46.371 100.466C45.4118 96.2454 43.4166 87.4205 43.1096 85.8857C42.8027 84.351 40.8075 77.3166 39.8483 73.9913C39.8483 73.9273 39.7332 73.9913 39.2727 74.7587C38.8728 75.4253 38.8299 75.6576 38.8675 75.7071L38.889 75.7179C38.8806 75.7179 38.8731 75.7146 38.8675 75.7071L36.9706 74.7587C35.5637 73.8634 32.4047 71.6508 31.0234 69.9625C29.6421 68.2743 29.2968 66.1896 29.2968 65.3582L31.5989 63.8235C32.75 63.0561 33.9011 61.905 35.0521 60.5621C35.973 59.4878 36.7148 58.7076 36.9706 58.4518C37.5461 57.7484 39.0041 56.2647 40.232 55.9578Z" fill="#FFF060"/>
</mask>
<g mask="url(#mask5)">
<path d="M74.5736 63.4397C72.4249 61.598 71.3762 57.6844 71.1204 55.9578L71.8877 71.3054L78.986 68.044L80.5208 64.399C79.4337 64.8466 76.7223 65.2815 74.5736 63.4397Z" fill="#FFC225"/>
</g>
<mask id="mask6" mask-type="alpha" maskUnits="userSpaceOnUse" x="29" y="54" width="51" height="49">
<path d="M40.232 55.9578C41.4598 55.6508 44.4526 55.1904 45.7955 54.9986C45.6676 58.3878 47.4837 65.1664 55.7715 65.1664C64.0592 65.1664 67.0264 58.3878 67.4741 54.9986C69.3925 54.9986 70.9273 55.7659 73.6131 57.6844C75.7618 59.2192 78.2174 62.8642 79.1767 64.5909C79.0488 64.9106 78.4476 65.8187 77.0664 66.893C75.6851 67.9673 72.7818 69.387 71.5028 69.9625C71.5028 71.1136 71.5796 74.8354 71.8865 80.5141C72.1935 86.1927 71.3749 95.542 70.9273 99.5068C69.3925 100.274 64.7115 102.001 58.2655 102.768C51.8194 103.536 47.65 101.553 46.371 100.466C45.4118 96.2454 43.4166 87.4205 43.1096 85.8857C42.8027 84.351 40.8075 77.3166 39.8483 73.9913C39.8483 73.9273 39.7332 73.9913 39.2727 74.7587C38.8728 75.4253 38.8299 75.6576 38.8675 75.7071L38.889 75.7179C38.8806 75.7179 38.8731 75.7146 38.8675 75.7071L36.9706 74.7587C35.5637 73.8634 32.4047 71.6508 31.0234 69.9625C29.6421 68.2743 29.2968 66.1896 29.2968 65.3582L31.5989 63.8235C32.75 63.0561 33.9011 61.905 35.0521 60.5621C35.973 59.4878 36.7148 58.7076 36.9706 58.4518C37.5461 57.7484 39.0041 56.2647 40.232 55.9578Z" fill="#FFF060"/>
</mask>
<g mask="url(#mask6)">
<path d="M54.8128 94.1349C47.7529 89.3772 42.4068 80.8976 40.6162 77.2525L42.7265 102.001L54.8128 107.372L75.1485 97.78C71.3115 98.5474 61.8727 98.8927 54.8128 94.1349Z" fill="#FFC225"/>
</g>
<mask id="mask7" mask-type="alpha" maskUnits="userSpaceOnUse" x="29" y="54" width="51" height="49">
<path d="M40.232 55.9578C41.4598 55.6508 44.4526 55.1904 45.7955 54.9986C45.6676 58.3878 47.4837 65.1664 55.7715 65.1664C64.0592 65.1664 67.0264 58.3878 67.4741 54.9986C69.3925 54.9986 70.9273 55.7659 73.6131 57.6844C75.7618 59.2192 78.2174 62.8642 79.1767 64.5909C79.0488 64.9106 78.4476 65.8187 77.0664 66.893C75.6851 67.9673 72.7818 69.387 71.5028 69.9625C71.5028 71.1136 71.5796 74.8354 71.8865 80.5141C72.1935 86.1927 71.3749 95.542 70.9273 99.5068C69.3925 100.274 64.7115 102.001 58.2655 102.768C51.8194 103.536 47.65 101.553 46.371 100.466C45.4118 96.2454 43.4166 87.4205 43.1096 85.8857C42.8027 84.351 40.8075 77.3166 39.8483 73.9913C39.8483 73.9273 39.7332 73.9913 39.2727 74.7587C38.8728 75.4253 38.8299 75.6576 38.8675 75.7071L38.889 75.7179C38.8806 75.7179 38.8731 75.7146 38.8675 75.7071L36.9706 74.7587C35.5637 73.8634 32.4047 71.6508 31.0234 69.9625C29.6421 68.2743 29.2968 66.1896 29.2968 65.3582L31.5989 63.8235C32.75 63.0561 33.9011 61.905 35.0521 60.5621C35.973 59.4878 36.7148 58.7076 36.9706 58.4518C37.5461 57.7484 39.0041 56.2647 40.232 55.9578Z" fill="#FFF060"/>
</mask>
<g mask="url(#mask7)">
<path d="M39.2738 63.2478C39.2738 66.9313 40.1691 73.6075 40.6168 76.4852L38.6983 76.677L31.0245 70.9217L26.4202 64.5907L36.588 57.6843L39.6575 55.574C39.5296 56.5972 39.2738 59.5644 39.2738 63.2478Z" fill="#FFC225"/>
</g>
<path d="M69.0103 54.9987C69.4579 53.7197 70.6218 51.1618 73.2309 51.1618C74.4587 51.1618 75.1494 51.5455 75.3412 51.7373C75.5331 51.4815 75.84 50.8932 75.5331 50.5862C75.2261 50.2793 75.1494 49.9467 75.1494 49.8188C75.597 49.627 76.7225 49.3584 77.6434 49.8188C78.7944 50.3944 78.6026 52.6965 78.2189 53.4639C77.8352 54.2313 76.1086 56.3416 75.7249 57.109C75.3412 57.8764 74.7657 60.3704 73.9983 60.9459C73.2309 61.5214 70.1614 63.4399 67.6674 65.742C65.1734 68.0442 64.7897 69.579 64.406 70.5382C64.0223 71.4974 64.2142 71.8811 64.0223 72.6485C63.8688 73.2624 63.3189 74.1833 63.0631 74.5669C63.2549 74.503 63.6386 74.4518 63.6386 74.7588V76.8691C63.4468 76.8691 62.9863 76.9075 62.6794 77.0609C62.3724 77.2144 60.633 80.3223 59.8017 81.8571V82.8163C59.482 82.8163 58.6506 82.8931 57.8832 83.2C57.2615 83.4487 57.0175 83.3784 56.9474 83.2747C57.2206 84.1355 57.9055 85.8653 58.6506 86.4614C59.6099 87.2288 59.8017 87.6125 59.8017 87.9962C59.8017 88.3798 59.2262 88.3798 59.2262 89.1472C59.2262 89.9146 60.1854 89.7228 59.9936 90.2983C59.8017 90.8738 58.4588 91.4494 56.924 93.176C55.3893 94.9026 55.3893 95.4781 55.1974 95.4781C55.0056 95.4781 53.0871 96.0537 51.7442 97.2048C50.4013 98.3558 50.2094 99.1232 49.442 99.6987C48.6746 100.274 48.291 99.8906 47.7154 100.466C47.1399 101.042 46.7562 102.768 45.6051 103.344C44.454 103.919 44.0704 103.536 44.2622 101.809C44.4157 100.428 45.6051 99.6987 46.1807 99.5069V100.082C46.0528 100.146 45.797 100.389 45.797 100.85C45.797 101.425 46.948 100.85 47.7154 99.3151C48.4828 97.7803 51.3605 95.8618 52.8953 94.9026C54.43 93.9434 56.1566 92.9841 56.924 89.1472C57.5379 87.152 57.1798 85.758 56.924 85.3103C56.6043 84.6069 56.0032 83.1233 56.1566 82.8163C56.3485 82.4326 57.1159 82.6245 57.8832 82.4326C58.6506 82.2408 58.8425 82.4326 59.0343 81.8571C59.2262 81.2816 59.0343 80.5142 59.2262 79.7468C59.418 78.9794 61.1446 76.1017 61.1446 75.718C61.1446 75.3343 60.7609 74.9506 61.1446 74.9506C61.5283 74.9506 62.2957 75.3343 62.4875 74.3751C62.6794 73.4159 63.2549 72.6485 63.2549 71.8811C63.2549 71.1137 63.0631 68.8116 63.6386 68.236C64.2142 67.6605 65.1734 63.8236 67.6674 61.9051C70.1614 59.9867 74.9575 58.0682 75.9167 55.1905C76.4923 53.6558 76.4923 53.0755 74.7657 52.121C73.0391 51.1664 71.5043 52.121 70.7369 53.2721C70.123 54.1929 69.8416 54.8068 69.7777 54.9987H69.0103Z" fill="#3ED3DB"/>
<path d="M57.8832 66.3176C57.4228 68.1593 58.3309 69.3871 58.8425 69.7708C58.6275 69.515 58.3265 68.8499 58.8425 68.236C60.9911 65.4735 60.3772 63.7596 59.8017 63.248L57.4996 62.4807C57.8193 62.9923 58.3437 64.4759 57.8832 66.3176Z" fill="#3ED3DB"/>
<path d="M77.0678 59.7948C76.9143 60.5622 75.8528 61.6493 75.3412 62.097C76.0446 62.1609 77.4515 62.097 77.4515 61.3296C77.4515 59.9483 78.091 58.9635 78.4107 58.6437C78.0271 58.7077 77.2213 59.0274 77.0678 59.7948Z" fill="#3ED3DB"/>
<path d="M62.4875 81.8571L62.1039 83.2C62.1678 83.8395 62.4108 85.2719 62.8712 85.8858C63.4468 86.6532 64.406 86.2695 64.7897 85.5022C65.1734 84.7348 64.0223 84.3511 63.6386 83.7755C63.3317 83.3151 62.7433 82.3047 62.4875 81.8571Z" fill="#3ED3DB"/>
<path d="M60.3772 94.5189C60.3772 93.905 59.3541 93.3678 58.8425 93.176C59.8017 94.3271 58.0751 95.4781 57.8832 96.8211C57.7298 97.8954 58.4588 98.9314 58.8425 99.3151C58.8425 99.1872 58.9192 98.6244 59.2262 97.3966C59.6099 95.8618 60.3772 95.2863 60.3772 94.5189Z" fill="#3ED3DB"/>
<path d="M52.3197 89.1472C52.4732 88.2264 52.3837 87.4846 52.3197 87.2288C53.6626 87.4206 54.43 89.7228 53.6626 90.8738C52.8953 92.0249 51.3605 91.2575 51.3605 90.8738C51.3605 90.4902 52.1279 90.2983 52.3197 89.1472Z" fill="#3ED3DB"/>
<path d="M67.6674 70.1545C66.9 70.4614 66.3245 71.3056 66.1326 71.6893C67.2837 70.73 69.0103 71.3056 69.394 70.5382C69.7009 69.9243 69.5219 69.3871 69.394 69.1953C69.1382 69.3871 68.4348 69.8475 67.6674 70.1545Z" fill="#3ED3DB"/>
<path d="M69.0103 54.9987C69.4579 53.7197 70.6218 51.1618 73.2309 51.1618C74.4587 51.1618 75.1494 51.5455 75.3412 51.7373C75.5331 51.4815 75.84 50.8932 75.5331 50.5862C75.2261 50.2793 75.1494 49.9467 75.1494 49.8188C75.597 49.627 76.7225 49.3584 77.6434 49.8188C78.7944 50.3944 78.6026 52.6965 78.2189 53.4639C77.8352 54.2313 76.1086 56.3416 75.7249 57.109C75.3412 57.8764 74.7657 60.3704 73.9983 60.9459C73.2309 61.5214 70.1614 63.4399 67.6674 65.742C65.1734 68.0442 64.7897 69.579 64.406 70.5382C64.0223 71.4974 64.2142 71.8811 64.0223 72.6485C63.8688 73.2624 63.3189 74.1833 63.0631 74.5669C63.2549 74.503 63.6386 74.4518 63.6386 74.7588V76.8691C63.4468 76.8691 62.9863 76.9075 62.6794 77.0609C62.3724 77.2144 60.633 80.3223 59.8017 81.8571V82.8163C59.482 82.8163 58.6506 82.8931 57.8832 83.2C57.2615 83.4487 57.0175 83.3784 56.9474 83.2747C57.2206 84.1355 57.9055 85.8653 58.6506 86.4614C59.6099 87.2288 59.8017 87.6125 59.8017 87.9962C59.8017 88.3798 59.2262 88.3798 59.2262 89.1472C59.2262 89.9146 60.1854 89.7228 59.9936 90.2983C59.8017 90.8738 58.4588 91.4494 56.924 93.176C55.3893 94.9026 55.3893 95.4781 55.1974 95.4781C55.0056 95.4781 53.0871 96.0537 51.7442 97.2048C50.4013 98.3558 50.2094 99.1232 49.442 99.6987C48.6746 100.274 48.291 99.8906 47.7154 100.466C47.1399 101.042 46.7562 102.768 45.6051 103.344C44.454 103.919 44.0704 103.536 44.2622 101.809C44.4157 100.428 45.6051 99.6987 46.1807 99.5069V100.082C46.0528 100.146 45.797 100.389 45.797 100.85C45.797 101.425 46.948 100.85 47.7154 99.3151C48.4828 97.7803 51.3605 95.8618 52.8953 94.9026C54.43 93.9434 56.1566 92.9841 56.924 89.1472C57.5379 87.152 57.1798 85.758 56.924 85.3103C56.6043 84.6069 56.0032 83.1233 56.1566 82.8163C56.3485 82.4326 57.1159 82.6245 57.8832 82.4326C58.6506 82.2408 58.8425 82.4326 59.0343 81.8571C59.2262 81.2816 59.0343 80.5142 59.2262 79.7468C59.418 78.9794 61.1446 76.1017 61.1446 75.718C61.1446 75.3343 60.7609 74.9506 61.1446 74.9506C61.5283 74.9506 62.2957 75.3343 62.4875 74.3751C62.6794 73.4159 63.2549 72.6485 63.2549 71.8811C63.2549 71.1137 63.0631 68.8116 63.6386 68.236C64.2142 67.6605 65.1734 63.8236 67.6674 61.9051C70.1614 59.9867 74.9575 58.0682 75.9167 55.1905C76.4923 53.6558 76.4923 53.0755 74.7657 52.121C73.0391 51.1664 71.5043 52.121 70.7369 53.2721C70.123 54.1929 69.8416 54.8068 69.7777 54.9987H69.0103Z" stroke="#3ED3DB" stroke-width="1.86765"/>
<path d="M57.8832 66.3176C57.4228 68.1593 58.3309 69.3871 58.8425 69.7708C58.6275 69.515 58.3265 68.8499 58.8425 68.236C60.9911 65.4735 60.3772 63.7596 59.8017 63.248L57.4996 62.4807C57.8193 62.9923 58.3437 64.4759 57.8832 66.3176Z" stroke="#3ED3DB" stroke-width="1.86765"/>
<path d="M77.0678 59.7948C76.9143 60.5622 75.8528 61.6493 75.3412 62.097C76.0446 62.1609 77.4515 62.097 77.4515 61.3296C77.4515 59.9483 78.091 58.9635 78.4107 58.6437C78.0271 58.7077 77.2213 59.0274 77.0678 59.7948Z" stroke="#3ED3DB" stroke-width="1.86765"/>
<path d="M62.4875 81.8571L62.1039 83.2C62.1678 83.8395 62.4108 85.2719 62.8712 85.8858C63.4468 86.6532 64.406 86.2695 64.7897 85.5022C65.1734 84.7348 64.0223 84.3511 63.6386 83.7755C63.3317 83.3151 62.7433 82.3047 62.4875 81.8571Z" stroke="#3ED3DB" stroke-width="1.86765"/>
<path d="M60.3772 94.5189C60.3772 93.905 59.3541 93.3678 58.8425 93.176C59.8017 94.3271 58.0751 95.4781 57.8832 96.8211C57.7298 97.8954 58.4588 98.9314 58.8425 99.3151C58.8425 99.1872 58.9192 98.6244 59.2262 97.3966C59.6099 95.8618 60.3772 95.2863 60.3772 94.5189Z" stroke="#3ED3DB" stroke-width="1.86765"/>
<path d="M52.3197 89.1472C52.4732 88.2264 52.3837 87.4846 52.3197 87.2288C53.6626 87.4206 54.43 89.7228 53.6626 90.8738C52.8953 92.0249 51.3605 91.2575 51.3605 90.8738C51.3605 90.4902 52.1279 90.2983 52.3197 89.1472Z" stroke="#3ED3DB" stroke-width="1.86765"/>
<path d="M67.6674 70.1545C66.9 70.4614 66.3245 71.3056 66.1326 71.6893C67.2837 70.73 69.0103 71.3056 69.394 70.5382C69.7009 69.9243 69.5219 69.3871 69.394 69.1953C69.1382 69.3871 68.4348 69.8475 67.6674 70.1545Z" stroke="#3ED3DB" stroke-width="1.86765"/>
<path fill-rule="evenodd" clip-rule="evenodd" d="M70.378 92.249L67.6322 93.1103L67.6539 93.1216C63.864 94.3069 62.3968 100.423 64.377 106.788C66.3583 113.157 71.0405 117.362 74.835 116.182C74.8465 116.178 74.8581 116.175 74.8696 116.171L74.8677 116.175L77.6134 115.313L77.2581 114.821L76.8319 114.91C79.081 112.532 79.7013 107.602 78.1182 102.513C76.5265 97.3969 73.1914 93.6765 69.974 93.0235L70.3672 92.8555L70.378 92.249Z" fill="#FF8E07"/>
<ellipse cx="73.9344" cy="103.807" rx="7.19542" ry="12.0758" transform="rotate(-17.2814 73.9344 103.807)" fill="#FFCF06"/>
<path d="M73.1851 94.7865C74.403 95.6778 77.1489 98.449 78.3892 102.403C79.6296 106.357 79.1643 110.001 78.7767 111.329" stroke="#FF8E07" stroke-width="2.80147"/>
<path fill-rule="evenodd" clip-rule="evenodd" d="M94.0782 92.9347L92.6904 92.413L92.695 92.423C90.7807 91.7005 88.2437 93.7174 87.0272 96.9294C85.8103 100.143 86.3759 103.336 88.2906 104.061C88.2973 104.063 88.304 104.066 88.3108 104.068L88.3073 104.07L89.695 104.591L89.7068 104.279L89.5029 104.178C91.1709 103.928 92.988 102.124 93.9608 99.5551C94.938 96.9747 94.7657 94.4075 93.6684 93.1209L93.8813 93.1775L94.0782 92.9347Z" fill="#FF8E07"/>
<ellipse cx="91.8533" cy="98.7544" rx="3.70703" ry="6.22135" transform="rotate(20.7419 91.8533 98.7544)" fill="#FFCF06"/>
<path d="M94.4119 94.8553C94.6233 95.6035 94.8583 97.5996 94.1069 99.5979C93.3555 101.596 92.0102 102.928 91.4314 103.344" stroke="#FF8E07" stroke-width="0.933823"/>
</svg>
