<svg width="95" height="130" viewBox="0 0 95 130" fill="none" xmlns="http://www.w3.org/2000/svg">
<path fill-rule="evenodd" clip-rule="evenodd" d="M50.5319 7.49631L45.6809 7.07448V6.67023L53.3705 1.98148C53.539 1.86773 53.7127 1.76183 53.8909 1.66414L53.9681 1.61703L53.9689 1.62203C55.9034 0.595058 58.3495 0.528008 60.4726 1.87906L72.766 9.70214L92.0045 21.9448C93.8702 23.1321 95 25.1903 95 27.4017V113.536C95 116.239 93.4201 118.378 91.294 119.385L83.8831 123.904L82.8724 117.638L82.9393 117.644L53.5275 98.9275C51.6618 97.7402 50.5319 95.6821 50.5319 93.4706V7.49631Z" fill="#6A3680"/>
<path d="M43.2554 11.7827C43.2554 6.67884 48.89 3.5857 53.196 6.32586L84.7279 26.3916C86.5936 27.5789 87.7235 29.6371 87.7235 31.8485V117.983C87.7235 123.087 82.0888 126.18 77.7828 123.44L46.2509 103.374C44.3852 102.187 43.2554 100.129 43.2554 97.9174V11.7827Z" fill="#4C1A74"/>
<path d="M46.4895 15.0156C46.4895 11.4978 50.3808 9.37286 53.3403 11.2746L82.0424 29.7184C83.3156 30.5366 84.0852 31.946 84.0852 33.4594V115.155C84.0852 118.672 80.1939 120.797 77.2345 118.896L48.5324 100.452C47.2592 99.6336 46.4895 98.2241 46.4895 96.7107V15.0156Z" fill="#6A3680"/>
<mask id="mask0" mask-type="alpha" maskUnits="userSpaceOnUse" x="46" y="10" width="39" height="110">
<path d="M46.4895 15.0156C46.4895 11.4978 50.3808 9.37286 53.3403 11.2746L82.0424 29.7184C83.3156 30.5366 84.0852 31.946 84.0852 33.4594V115.155C84.0852 118.672 80.1939 120.797 77.2345 118.896L48.5324 100.452C47.2592 99.6336 46.4895 98.2241 46.4895 96.7107V15.0156Z" fill="#6A3680"/>
</mask>
<g mask="url(#mask0)">
<path d="M49.3193 13.8029C49.3193 10.2851 53.2107 8.16015 56.1701 10.0619L84.8722 28.5057C86.1454 29.3239 86.9151 30.7333 86.9151 32.2467V113.942C86.9151 117.46 83.0238 119.585 80.0643 117.683L51.3622 99.239C50.089 98.4209 49.3193 97.0114 49.3193 95.498V13.8029Z" fill="#36DEF4"/>
<mask id="mask1" mask-type="alpha" maskUnits="userSpaceOnUse" x="49" y="10" width="38" height="110">
<path d="M49.3193 15.0156C49.3193 11.4978 53.2107 9.37286 56.1701 11.2746L84.8722 29.7184C86.1454 30.5366 86.9151 31.946 86.9151 33.4594V115.155C86.9151 118.672 83.0238 120.797 80.0643 118.896L51.3622 100.452C50.089 99.6336 49.3193 98.2241 49.3193 96.7107V15.0156Z" fill="#36DEF4"/>
</mask>
<g mask="url(#mask1)">
<path fill-rule="evenodd" clip-rule="evenodd" d="M42.1545 28.4637C40.1978 27.1778 37.596 28.5814 37.596 30.9228V58.6415C37.596 61.8119 39.1914 64.7695 41.841 66.5106L53.6352 74.2611C55.5919 75.5469 58.1937 74.1434 58.1937 71.802V42.1784C58.1937 40.1969 57.1966 38.3484 55.5406 37.2602L42.1545 28.4637ZM76.9205 53.9318C74.9638 52.646 72.3619 54.0495 72.3619 56.3909V84.1096C72.3619 87.28 73.9574 90.2376 76.6069 91.9787L88.4012 99.7292C90.3579 101.015 92.9597 99.6115 92.9597 97.2701V67.6466C92.9597 65.665 91.9625 63.8166 90.3066 62.7284L76.9205 53.9318Z" fill="#25B1FF"/>
</g>
</g>
<path d="M76.4043 26.0745L74.3831 27.8936L74.7873 25.0638L76.4043 26.0745Z" fill="#6A3680"/>
<path d="M61.8511 16.5745L74.7872 25.0638V27.2045C74.7872 27.8476 74.0728 28.2333 73.5351 27.8804L62.3984 20.572C62.0568 20.3478 61.8511 19.9667 61.8511 19.558V16.5745Z" fill="#4C1A74"/>
<path fill-rule="evenodd" clip-rule="evenodd" d="M52.864 31.9417L55.8065 32.4767V56.876C55.8065 60.0464 57.402 63.004 60.0515 64.7451L69.4821 70.9423L68.1652 73.1371L72.2847 74.1731L74.4926 72.7932C75.5709 72.3864 76.4043 71.3617 76.4043 70.0365V40.4129C76.4043 38.4314 75.4071 36.583 73.7512 35.4948L60.3651 26.6982C59.2085 25.9382 57.8266 26.1177 56.8898 26.8751L54.041 28.5639L52.864 31.9417Z" fill="#6A3680"/>
<path d="M52.864 30.9228C52.864 28.5814 55.4658 27.1778 57.4225 28.4637L70.8086 37.2603C72.4646 38.3485 73.4618 40.1969 73.4618 42.1784V71.802C73.4618 74.1434 70.8599 75.5469 68.9032 74.2611L57.109 66.5106C54.4595 64.7695 52.864 61.8119 52.864 58.6415V30.9228Z" fill="#4C1A74"/>
<path d="M59.5221 44.7708C59.5171 44.3843 59.5222 42.7706 59.8847 41.4322C60.0686 40.7533 60.3227 40.231 60.6384 39.9496C60.7863 39.8177 60.9434 39.7423 61.1202 39.72C61.3008 39.6971 61.54 39.7249 61.8552 39.8628C62.9327 40.3341 63.7046 41.146 64.218 42.4516C64.7398 43.7785 64.9916 45.6117 64.9918 48.0931L64.7984 63.769L59.5237 60.3561V44.9487C59.5237 44.8944 59.523 44.8413 59.5224 44.7911C59.5223 44.7843 59.5222 44.7775 59.5221 44.7708Z" stroke="#FFE925"/>
<path d="M33.1489 48.5106C33.4723 46.4085 33.5531 43.727 33.5531 42.6489L33.351 38.6064H29.9148L27.6914 44.0638V54.9787C28.2978 55.1135 29.7531 55.1809 30.7233 54.3723C31.9361 53.3617 32.7446 51.1383 33.1489 48.5106Z" fill="#F12272"/>
<path d="M30.7235 59.0213C29.915 58.6979 28.5001 57.539 27.8937 57L27.0852 61.6489L28.5001 63.8723C29.3086 63.4681 30.9661 62.6191 31.1278 62.4574C31.2895 62.2957 32.2731 60.773 32.7448 60.0319C32.4079 59.8298 31.532 59.3447 30.7235 59.0213Z" fill="#F12272"/>
<path d="M38.5212 53.0697C33.6276 55.5028 28.2446 59.3145 25.0637 61.8286L27.0212 69.1277C28.6524 68.56 32.3063 67.1326 33.8722 65.9647C35.8297 64.5049 44.1488 57.4492 45.1276 56.7193C46.1063 55.9894 49.7765 52.3398 50.9999 52.3398C52.2233 52.3398 52.7127 51.6099 52.9573 51.3666V47.2305V42.8511C50.9999 44.0676 51.5871 45.4787 50.9999 46.2573C50.2658 47.2305 42.1897 51.2458 38.5212 53.0697Z" fill="#F12272"/>
<mask id="mask2" mask-type="alpha" maskUnits="userSpaceOnUse" x="25" y="42" width="28" height="28">
<path d="M38.5212 53.0531C33.6276 55.5 28.2446 59.3333 25.0637 61.8617L27.0212 69.2021C28.6524 68.6312 32.3063 67.1957 33.8722 66.0212C35.8297 64.5531 44.1488 57.4574 45.1276 56.7234C46.1063 55.9893 49.7765 52.3191 50.9999 52.3191C52.2233 52.3191 52.7127 51.5851 52.9573 51.3404V47.1808V42.7766C50.9999 44 51.5871 45.4191 50.9999 46.2021C50.2658 47.1808 42.1898 51.2188 38.5212 53.0531L38.5212 53.0531Z" fill="#F12272"/>
</mask>
<g mask="url(#mask2)">
<path d="M31.9147 61.3723C28.3913 61.9596 25.7162 60.883 25.3083 60.6383L29.4679 69.2021L36.0743 68.4681L50.7552 57.9468C50.3474 57.7021 48.8956 57.2128 46.3509 57.2128C43.1701 57.2128 36.319 60.6383 31.9147 61.3723Z" fill="#BE034D"/>
</g>
<path d="M48.8215 77.3021C49.6974 77.7063 51.6513 78.6361 52.4598 79.1212C53.2683 79.6063 53.6052 79.7276 53.6725 79.7276C54.2789 78.5148 56.3811 75.2404 59.9385 71.8446C64.3853 67.5999 65.3959 67.3978 66.6087 65.7808C67.5789 64.4872 68.3605 62.951 68.63 62.3446C68.4279 61.4014 68.2257 59.1914 69.0342 57.8978C70.0449 56.2808 70.4491 53.8553 70.4491 52.6425C70.4491 51.4297 70.6513 49.2063 71.6619 49.0042C72.4704 48.8425 72.8073 48.9368 72.8747 49.0042C72.7399 49.678 72.5513 51.268 72.8747 52.2382C73.0406 52.8822 73.615 54.1702 74.5852 54.1702C76.22 53.9031 76.3903 52.6355 76.4043 52.5029V49.7234C76.6738 49.7908 77.4428 50.217 77.9279 51.0255C78.413 51.834 78.2647 52.8446 78.13 53.2489C78.2647 53.3163 78.5747 53.5723 78.7364 54.0574C78.8981 54.5425 78.8038 55.3375 78.7364 55.6744C78.8711 55.9439 79.1406 56.6851 79.1406 57.4936C79.1406 58.3021 78.4669 59.3127 78.13 59.717C78.2647 59.9191 78.4938 60.4851 78.3321 61.1319C78.13 61.9404 76.3108 63.3553 75.0981 63.9616C73.8853 64.568 73.2789 64.568 72.2683 66.1851C71.2577 67.8021 67.2151 77.0999 62.9704 80.7382C59.3321 84.9829 58.1194 85.1851 57.7151 86.3978C57.3108 87.6106 54.8853 88.4191 53.2683 88.4191C51.6513 88.4191 46.5981 85.9936 45.7896 85.3872C45.1428 84.9021 47.5413 79.795 48.8215 77.3021Z" fill="#F12272"/>
<mask id="mask3" mask-type="alpha" maskUnits="userSpaceOnUse" x="45" y="48" width="35" height="41">
<path d="M52.4598 79.1212C51.6513 78.6361 49.6974 77.7063 48.8215 77.3021C47.5413 79.795 45.1428 84.9021 45.7896 85.3872C46.5981 85.9936 51.6513 88.4191 53.2683 88.4191C54.8853 88.4191 57.3108 87.6106 57.7151 86.3978C58.1194 85.1851 59.3321 84.9829 62.9704 80.7382C67.2151 77.0999 71.2577 67.8021 72.2683 66.1851C73.2789 64.568 73.8853 64.568 75.0981 63.9616C76.3108 63.3553 78.13 61.9404 78.3321 61.1319C78.4938 60.4851 78.2647 59.9191 78.13 59.717C78.4669 59.3127 79.1406 58.3021 79.1406 57.4936C79.1406 56.6851 78.8711 55.9439 78.7364 55.6744C78.8038 55.3375 78.8981 54.5425 78.7364 54.0574C78.5747 53.5723 78.2647 53.3163 78.13 53.2489C78.2647 52.8446 78.413 51.834 77.9279 51.0255C77.4428 50.217 76.7825 49.8801 76.513 49.8127V52.6425C76.3782 52.6425 75.9066 52.6829 75.0981 52.8446C74.2896 53.0063 73.2789 53.5858 72.8747 53.8553C73.0094 53.7205 73.1981 53.2085 72.8747 52.2382C72.5513 51.268 72.7399 49.678 72.8747 49.0042C72.8073 48.9368 72.4704 48.8425 71.6619 49.0042C70.6513 49.2063 70.4491 51.4297 70.4491 52.6425C70.4491 53.8553 70.0449 56.2808 69.0342 57.8978C68.2257 59.1914 68.4279 61.4014 68.63 62.3446C68.3605 62.951 67.5789 64.4872 66.6087 65.7808C65.3959 67.3978 64.3853 67.5999 59.9385 71.8446C56.3811 75.2404 54.2789 78.5148 53.6725 79.7276C53.6052 79.7276 53.2683 79.6063 52.4598 79.1212Z" fill="#F12272"/>
</mask>
<g mask="url(#mask3)">
<path d="M56.5957 84.4893C54.3318 85.1362 49.8581 82.6028 47.9042 81.2553L44.468 79.8404L42.0425 88.734L54.3723 91.5638L65.2872 85.9042L72.1595 68.7234C70.812 69.5319 67.834 71.6745 66.7021 73.7766C65.2872 76.4042 59.4255 83.6808 56.5957 84.4893Z" fill="#BE034D"/>
</g>
<path d="M39.2128 64.2766C38.2426 62.983 34.4965 60.9078 32.7447 60.0319L31.1277 59.2234C31.0603 59.3582 31.2793 59.6277 30.9255 61.0426C30.6021 62.3362 28.6348 62.9965 27.8936 63.0638L9.70213 57.6064C6.46809 59.0213 0 63.1043 0 68.117C0 73.1298 3.23404 74.6525 4.85106 74.7872C5.99645 75.7979 8.65106 79.7596 10.1064 87.5213C11.5617 95.283 9.5 104.635 8.28723 108.34C9.16312 110.294 13.1383 114.323 22.0319 114.809C30.9255 115.294 36.2482 110.699 37.7979 108.34C36.7872 105.915 34.9681 99.5681 35.7766 93.5851C36.5851 87.6021 38.6738 83.0071 39.617 81.4574C39.9539 81.6596 40.8702 82.1851 41.8404 82.6702C42.8106 83.1553 44.6702 84.3546 45.4787 84.8936C45.883 84.6241 47.0149 83.5596 48.3085 81.4574C49.6021 79.3553 49.5213 76.2695 49.3191 74.9894C48.5106 74.1809 46.5298 72.3617 45.0745 71.5532C43.2553 70.5426 40.4255 65.8936 39.2128 64.2766Z" fill="#FFE925"/>
<mask id="mask4" mask-type="alpha" maskUnits="userSpaceOnUse" x="0" y="57" width="50" height="58">
<path d="M39.2128 64.2766C38.2426 62.983 34.4965 60.9078 32.7447 60.0319L31.1277 59.2234C31.0603 59.3582 31.2793 59.6277 30.9255 61.0426C30.6021 62.3362 28.6348 62.9965 27.8936 63.0638L9.70213 57.6064C6.46809 59.0213 0 63.1043 0 68.117C0 73.1298 3.23404 74.6525 4.85106 74.7872C5.99645 75.7979 8.65106 79.7596 10.1064 87.5213C11.5617 95.283 9.5 104.635 8.28723 108.34C9.16312 110.294 13.1383 114.323 22.0319 114.809C30.9255 115.294 36.2482 110.699 37.7979 108.34C36.7872 105.915 34.9681 99.5681 35.7766 93.5851C36.5851 87.6021 38.6738 83.0071 39.617 81.4574C39.9539 81.6596 40.8702 82.1851 41.8404 82.6702C42.8106 83.1553 44.6702 84.3546 45.4787 84.8936C45.883 84.6241 47.0149 83.5596 48.3085 81.4574C49.6021 79.3553 49.5213 76.2695 49.3191 74.9894C48.5106 74.1809 46.5298 72.3617 45.0745 71.5532C43.2553 70.5426 40.4255 65.8936 39.2128 64.2766Z" fill="#534D11"/>
</mask>
<g mask="url(#mask4)">
<path d="M36.1808 71.351C30.3595 64.3979 12.3297 59.5603 4.04248 58.0106L0.606305 60.4362L-7.88306 71.351L-3.43625 99.851L15.1595 119.053L38.6063 114.404C36.9219 112.248 33.4318 105.915 32.9467 97.8298C32.4616 89.7447 33.9574 83.1418 34.7659 80.851C35.1028 80.9184 36.0191 81.2553 36.9893 82.0638C37.9595 82.8723 38.4716 84.1525 38.6063 84.6915L44.468 85.5C44.1311 83.6808 42.0021 78.3042 36.1808 71.351Z" fill="#FFC225"/>
</g>
<path d="M35.5746 40.4578C35.0895 43.2067 35.7767 45.511 36.181 46.3195C36.181 46.3868 36.0597 46.5465 35.5746 46.6463C34.9682 46.771 33.7554 45.7131 32.7448 44.0961C31.9363 42.8024 31.7342 40.4578 31.7342 39.4471C31.6668 39.6493 31.3703 40.4173 30.7235 41.8727C29.915 43.6918 30.1172 47.128 30.7235 49.7556C31.3299 52.3833 31.1278 54.4046 31.1278 55.4152C31.1278 56.2237 30.8583 56.9649 30.7235 57.2344C30.454 57.3017 29.8746 57.1939 29.7129 56.2237C29.5512 55.2535 28.7023 54.2024 28.298 53.7982C28.1633 54.2024 27.8937 55.779 27.8937 58.8514C27.8937 62.6918 29.7129 64.7131 29.1065 65.7237C28.5001 66.7344 27.0852 65.9258 25.6703 66.128C24.2554 66.3301 22.6384 67.9471 19.6065 67.745C16.5746 67.5429 15.7661 65.5216 13.1384 64.7131C10.5108 63.9046 7.47885 65.5216 6.67034 65.1173C5.86183 64.7131 6.06396 63.0961 6.06396 62.0854C6.06396 61.2769 6.46821 59.862 6.67034 59.2556C6.53559 59.2556 6.14481 59.2961 5.6597 59.4578C5.1746 59.6195 4.11006 60.6032 3.63843 61.0748V59.862C3.63843 58.0429 5.25545 55.6173 6.06396 53.1918C6.87247 50.7663 5.45758 49.1493 7.0746 38.6386C8.36822 30.2301 12.1952 26.3762 13.9469 25.5003C16.5072 23.9507 23.1235 21.7812 29.1065 25.5003C36.5852 30.1492 36.181 37.0216 35.5746 40.4578Z" fill="#6A3680"/>
<mask id="mask5" mask-type="alpha" maskUnits="userSpaceOnUse" x="3" y="23" width="34" height="45">
<path d="M35.5746 40.4578C35.0895 43.2067 35.7767 45.511 36.181 46.3195C36.181 46.3868 36.0597 46.5465 35.5746 46.6463C34.9682 46.771 33.7554 45.7131 32.7448 44.0961C31.9363 42.8024 31.7342 40.4578 31.7342 39.4471C31.6668 39.6493 31.3703 40.4173 30.7235 41.8727C29.915 43.6918 30.1172 47.128 30.7235 49.7556C31.3299 52.3833 31.1278 54.4046 31.1278 55.4152C31.1278 56.2237 30.8583 56.9649 30.7235 57.2344C30.454 57.3017 29.8746 57.1939 29.7129 56.2237C29.5512 55.2535 28.7023 54.2024 28.298 53.7982C28.1633 54.2024 27.8937 55.779 27.8937 58.8514C27.8937 62.6918 29.7129 64.7131 29.1065 65.7237C28.5001 66.7344 27.0852 65.9258 25.6703 66.128C24.2554 66.3301 22.6384 67.9471 19.6065 67.745C16.5746 67.5429 15.7661 65.5216 13.1384 64.7131C10.5108 63.9046 7.47885 65.5216 6.67034 65.1173C5.86183 64.7131 6.06396 63.0961 6.06396 62.0854C6.06396 61.2769 6.46821 59.862 6.67034 59.2556C6.53559 59.2556 6.14481 59.2961 5.6597 59.4578C5.1746 59.6195 4.11006 60.6032 3.63843 61.0748V59.862C3.63843 58.0429 5.25545 55.6173 6.06396 53.1918C6.87247 50.7663 5.45758 49.1493 7.0746 38.6386C8.36822 30.2301 12.1952 26.3762 13.9469 25.5003C16.5072 23.9507 23.1235 21.7812 29.1065 25.5003C36.5852 30.1492 36.181 37.0216 35.5746 40.4578Z" fill="#50117A"/>
</mask>
<g mask="url(#mask5)">
<path d="M31.5321 40.4578C31.047 43.2067 31.7343 45.511 32.1385 46.3195C32.1385 46.3868 32.0172 46.5465 31.5321 46.6463C30.9257 46.771 29.713 45.7131 28.7023 44.0961C27.8938 42.8024 27.6917 40.4578 27.6917 39.4471C27.6243 39.6493 27.3279 40.4173 26.6811 41.8727C25.8725 43.6918 26.0747 47.128 26.6811 49.7556C27.2874 52.3833 27.0853 54.4046 27.0853 55.4152C27.0853 56.2237 26.8158 56.9649 26.6811 57.2344C26.4116 57.3017 25.8321 57.1939 25.6704 56.2237C25.5087 55.2535 24.6598 54.2024 24.2555 53.7982C24.1208 54.2024 23.8513 55.779 23.8513 58.8514C23.8513 65.1173 29.713 66.3301 29.1066 67.3407C28.5002 68.3514 27.0853 67.5429 25.6704 67.745C24.2555 67.9471 18.5959 67.9471 15.564 67.745C12.5321 67.5429 11.7236 65.5216 9.09595 64.7131C6.46829 63.9046 3.43637 65.5216 2.62786 65.1173C1.81935 64.7131 2.02148 63.0961 2.02148 62.0854C2.02148 61.2769 2.42573 59.862 2.62786 59.2556C2.49311 59.2556 2.10233 59.2961 1.61722 59.4578C1.13212 59.6195 0.0675785 60.6032 -0.404053 61.0748V59.862C-0.404053 58.0429 1.21297 55.6173 2.02148 53.1918C2.82999 50.7663 1.4151 49.1493 3.03212 38.6386C4.32573 30.2301 8.15269 26.3762 9.90446 25.5003C12.4647 23.9507 19.0811 21.7812 25.064 25.5003C32.5428 30.1492 32.1385 37.0216 31.5321 40.4578Z" fill="#4C1A74"/>
</g>
<path d="M62.968 46.2873C62.968 46.7047 62.8543 47.06 62.6968 47.2963C62.5369 47.5361 62.371 47.6064 62.2552 47.6064C62.1395 47.6064 61.9736 47.5361 61.8137 47.2963C61.6562 47.06 61.5425 46.7047 61.5425 46.2873C61.5425 45.8699 61.6562 45.5146 61.8137 45.2783C61.9736 45.0385 62.1395 44.9681 62.2552 44.9681C62.371 44.9681 62.5369 45.0385 62.6968 45.2783C62.8543 45.5146 62.968 45.8699 62.968 46.2873Z" stroke="#FFE925"/>
<path d="M56.5 48.3608C56.5 46.7699 58.0262 45.667 59.5 46.0876V54.2378L58.7555 53.9145C57.386 53.3199 56.5 51.9692 56.5 50.4763V48.3608Z" stroke="#FFE925"/>
<path d="M68.5 55.6392C68.5 57.2301 66.9738 58.333 65.5 57.9124V49.7622L66.2445 50.0855C67.614 50.6801 68.5 52.0308 68.5 53.5237V55.6392Z" stroke="#FFE925"/>
</svg>
